# 3ds Max Wavefront OBJ Exporter v0.99 - (c)2007 guruware
# File Created: 02.05.2024 11:13:11

mtllib kuvalda.mtl

#
# object kuvalda
#

v  -66.0000 0.0000 -17.5000
v  66.0000 0.0000 -17.5000
v  66.0000 0.0000 17.5000
v  -66.0000 0.0000 17.5000
v  -22.4886 45.0000 -0.0000
v  -22.0097 45.0000 2.7475
v  -22.0097 400.0000 2.7475
v  -22.4886 400.0000 -0.0000
v  -20.8552 45.0000 5.2862
v  -20.8552 400.0000 5.2862
v  -19.0993 45.0000 7.4530
v  -19.0993 400.0000 7.4530
v  -16.8550 45.0000 9.1085
v  -16.8550 400.0000 9.1085
v  -14.2664 45.0000 10.1465
v  -14.2664 400.0000 10.1465
v  -11.5000 45.0000 10.5000
v  -11.5000 400.0000 10.5000
v  -11.5000 45.0000 -10.5000
v  -14.2664 45.0000 -10.1465
v  -14.2664 400.0000 -10.1465
v  -11.5000 400.0000 -10.5000
v  -16.8550 45.0000 -9.1085
v  -16.8550 400.0000 -9.1085
v  -19.0993 45.0000 -7.4530
v  -19.0993 400.0000 -7.4530
v  -20.8552 45.0000 -5.2862
v  -20.8552 400.0000 -5.2862
v  -22.0097 45.0000 -2.7475
v  -22.0097 400.0000 -2.7475
v  11.5000 400.0000 -10.5000
v  11.5000 45.0000 -10.5000
v  22.4886 45.0000 -0.0000
v  22.0097 45.0000 -2.7475
v  22.0097 400.0000 -2.7475
v  22.4886 400.0000 -0.0000
v  20.8552 45.0000 -5.2862
v  20.8552 400.0000 -5.2862
v  19.0993 45.0000 -7.4530
v  19.0993 400.0000 -7.4530
v  16.8550 45.0000 -9.1085
v  16.8550 400.0000 -9.1085
v  14.2664 45.0000 -10.1465
v  14.2664 400.0000 -10.1465
v  11.5000 45.0000 10.5000
v  14.2664 45.0000 10.1465
v  14.2664 400.0000 10.1465
v  11.5000 400.0000 10.5000
v  16.8550 45.0000 9.1085
v  16.8550 400.0000 9.1085
v  19.0993 45.0000 7.4530
v  19.0993 400.0000 7.4530
v  20.8552 45.0000 5.2862
v  20.8552 400.0000 5.2862
v  22.0097 45.0000 2.7475
v  22.0097 400.0000 2.7475
v  66.0000 45.0000 17.5000
v  66.0000 45.0000 -17.5000
v  -66.0000 45.0000 17.5000
v  -66.0000 45.0000 -17.5000
v  -71.0000 40.0000 -17.5000
v  -71.0000 5.0000 -17.5000
v  -71.0000 5.0000 17.5000
v  -71.0000 40.0000 17.5000
v  66.0000 40.0000 -22.5000
v  66.0000 5.0000 -22.5000
v  -66.0000 5.0000 -22.5000
v  -66.0000 40.0000 -22.5000
v  71.0000 40.0000 17.5000
v  71.0000 5.0000 17.5000
v  71.0000 5.0000 -17.5000
v  71.0000 40.0000 -17.5000
v  -66.0000 40.0000 22.5000
v  -66.0000 5.0000 22.5000
v  66.0000 5.0000 22.5000
v  66.0000 40.0000 22.5000
v  67.9134 5.0000 22.1194
v  67.9134 40.0000 22.1194
v  69.5355 5.0000 21.0355
v  69.5355 40.0000 21.0355
v  70.6194 5.0000 19.4134
v  70.6194 40.0000 19.4134
v  -67.9134 5.0000 -22.1194
v  -67.9134 40.0000 -22.1194
v  -69.5355 5.0000 -21.0355
v  -69.5355 40.0000 -21.0355
v  -70.6194 5.0000 -19.4134
v  -70.6194 40.0000 -19.4134
v  70.6194 5.0000 -19.4134
v  70.6194 40.0000 -19.4134
v  69.5355 5.0000 -21.0355
v  69.5355 40.0000 -21.0355
v  67.9134 5.0000 -22.1194
v  67.9134 40.0000 -22.1194
v  -70.6194 5.0000 19.4134
v  -70.6194 40.0000 19.4134
v  -69.5355 5.0000 21.0355
v  -69.5355 40.0000 21.0355
v  -67.9134 5.0000 22.1194
v  -67.9134 40.0000 22.1194
v  66.0000 44.6194 -19.4134
v  -66.0000 44.6194 -19.4134
v  66.0000 43.5355 -21.0355
v  -66.0000 43.5355 -21.0355
v  66.0000 41.9134 -22.1194
v  -66.0000 41.9134 -22.1194
v  68.5000 43.5355 -20.0000
v  67.3530 44.6194 -18.8530
v  67.7678 44.6194 -18.2322
v  69.2664 43.5355 -18.8530
v  67.3530 43.5355 -20.7664
v  66.7322 44.6194 -19.2678
v  69.2664 41.9134 -20.7664
v  70.2678 41.9134 -19.2678
v  67.7678 41.9134 -21.7678
v  70.6194 41.9134 -17.5000
v  69.5355 43.5355 -17.5000
v  67.9134 44.6194 -17.5000
v  67.9134 44.6194 17.5000
v  69.5355 43.5355 17.5000
v  70.6194 41.9134 17.5000
v  68.5000 43.5355 20.0000
v  67.3530 44.6194 18.8530
v  66.7322 44.6194 19.2678
v  67.3530 43.5355 20.7664
v  69.2664 43.5355 18.8530
v  67.7678 44.6194 18.2322
v  69.2664 41.9134 20.7664
v  67.7678 41.9134 21.7678
v  70.2678 41.9134 19.2678
v  66.0000 41.9134 22.1194
v  66.0000 43.5355 21.0355
v  66.0000 44.6194 19.4134
v  -66.0000 44.6194 19.4134
v  -66.0000 43.5355 21.0355
v  -66.0000 41.9134 22.1194
v  -68.5000 43.5355 20.0000
v  -67.3530 44.6194 18.8530
v  -67.7678 44.6194 18.2322
v  -69.2664 43.5355 18.8530
v  -67.3530 43.5355 20.7664
v  -66.7322 44.6194 19.2678
v  -69.2664 41.9134 20.7664
v  -70.2678 41.9134 19.2678
v  -67.7678 41.9134 21.7678
v  -70.6194 41.9134 17.5000
v  -69.5355 43.5355 17.5000
v  -67.9134 44.6194 17.5000
v  -67.9134 44.6194 -17.5000
v  -69.5355 43.5355 -17.5000
v  -70.6194 41.9134 -17.5000
v  -68.5000 43.5355 -20.0000
v  -67.3530 44.6194 -18.8530
v  -66.7322 44.6194 -19.2678
v  -67.3530 43.5355 -20.7664
v  -69.2664 43.5355 -18.8530
v  -67.7678 44.6194 -18.2322
v  -69.2664 41.9134 -20.7664
v  -67.7678 41.9134 -21.7678
v  -70.2678 41.9134 -19.2678
v  66.0000 0.3806 19.4134
v  -66.0000 0.3806 19.4134
v  66.0000 1.4645 21.0355
v  -66.0000 1.4645 21.0355
v  66.0000 3.0866 22.1194
v  -66.0000 3.0866 22.1194
v  -68.5000 1.4645 20.0000
v  -67.3530 0.3806 18.8530
v  -66.7322 0.3806 19.2678
v  -67.3530 1.4645 20.7664
v  -69.2664 1.4645 18.8530
v  -67.7678 0.3806 18.2322
v  -69.2664 3.0866 20.7664
v  -67.7678 3.0866 21.7678
v  -70.2678 3.0866 19.2678
v  -69.5355 1.4645 17.5000
v  -67.9134 0.3806 17.5000
v  -70.6194 3.0866 17.5000
v  -67.9134 0.3806 -17.5000
v  -69.5355 1.4645 -17.5000
v  -70.6194 3.0866 -17.5000
v  -68.5000 1.4645 -20.0000
v  -67.3530 0.3806 -18.8530
v  -67.7678 0.3806 -18.2322
v  -69.2664 1.4645 -18.8530
v  -67.3530 1.4645 -20.7664
v  -66.7322 0.3806 -19.2678
v  -69.2664 3.0866 -20.7664
v  -70.2678 3.0866 -19.2678
v  -67.7678 3.0866 -21.7678
v  -66.0000 1.4645 -21.0355
v  -66.0000 0.3806 -19.4134
v  -66.0000 3.0866 -22.1194
v  66.0000 0.3806 -19.4134
v  66.0000 1.4645 -21.0355
v  66.0000 3.0866 -22.1194
v  68.5000 1.4645 -20.0000
v  67.3530 0.3806 -18.8530
v  66.7322 0.3806 -19.2678
v  67.3530 1.4645 -20.7664
v  69.2664 1.4645 -18.8530
v  67.7678 0.3806 -18.2322
v  69.2664 3.0866 -20.7664
v  67.7678 3.0866 -21.7678
v  70.2678 3.0866 -19.2678
v  69.5355 1.4645 -17.5000
v  67.9134 0.3806 -17.5000
v  70.6194 3.0866 -17.5000
v  67.9134 0.3806 17.5000
v  69.5355 1.4645 17.5000
v  70.6194 3.0866 17.5000
v  68.5000 1.4645 20.0000
v  67.3530 0.3806 18.8530
v  67.7678 0.3806 18.2322
v  69.2664 1.4645 18.8530
v  67.3530 1.4645 20.7664
v  66.7322 0.3806 19.2678
v  69.2664 3.0866 20.7664
v  70.2678 3.0866 19.2678
v  67.7678 3.0866 21.7678
# 220 vertices

vn -0.0810 -0.9934 -0.0810
vn 0.0810 -0.9934 -0.0810
vn 0.0810 -0.9934 0.0810
vn -0.0810 -0.9934 0.0810
vn -0.6638 0.7479 0.0000
vn -0.6460 0.7368 0.1996
vn -0.7008 0.6797 0.2165
vn -0.7420 0.6704 -0.0000
vn -0.5750 0.7368 0.3557
vn -0.6238 0.6797 0.3859
vn -0.4671 0.7368 0.4888
vn -0.5068 0.6797 0.5303
vn -0.3291 0.7368 0.5906
vn -0.3571 0.6797 0.6407
vn -0.1700 0.7368 0.6544
vn -0.1845 0.6797 0.7100
vn -0.0440 0.7217 0.6908
vn -0.0458 0.6931 0.7194
vn -0.0440 0.7217 -0.6908
vn -0.1700 0.7368 -0.6544
vn -0.1845 0.6797 -0.7100
vn -0.0458 0.6931 -0.7194
vn -0.3291 0.7368 -0.5906
vn -0.3571 0.6797 -0.6407
vn -0.4671 0.7367 -0.4889
vn -0.5068 0.6797 -0.5303
vn -0.5750 0.7368 -0.3557
vn -0.6238 0.6797 -0.3859
vn -0.6460 0.7368 -0.1996
vn -0.7008 0.6797 -0.2166
vn 0.0458 0.6931 -0.7194
vn 0.0440 0.7217 -0.6908
vn 0.6638 0.7479 -0.0000
vn 0.6460 0.7368 -0.1996
vn 0.7008 0.6797 -0.2166
vn 0.7420 0.6704 0.0000
vn 0.5750 0.7368 -0.3557
vn 0.6238 0.6797 -0.3859
vn 0.4671 0.7368 -0.4888
vn 0.5068 0.6797 -0.5303
vn 0.3291 0.7368 -0.5906
vn 0.3571 0.6797 -0.6407
vn 0.1700 0.7368 -0.6544
vn 0.1845 0.6797 -0.7100
vn 0.0440 0.7217 0.6908
vn 0.1700 0.7368 0.6544
vn 0.1845 0.6797 0.7100
vn 0.0458 0.6931 0.7194
vn 0.3291 0.7368 0.5906
vn 0.3571 0.6797 0.6407
vn 0.4671 0.7367 0.4889
vn 0.5068 0.6797 0.5303
vn 0.5750 0.7368 0.3557
vn 0.6239 0.6796 0.3859
vn 0.6460 0.7368 0.1996
vn 0.7008 0.6797 0.2166
vn 0.0810 0.9934 0.0810
vn 0.0810 0.9934 -0.0810
vn -0.0810 0.9934 0.0810
vn -0.0810 0.9934 -0.0810
vn -0.9905 0.0970 -0.0970
vn -0.9905 -0.0970 -0.0970
vn -0.9905 -0.0970 0.0970
vn -0.9905 0.0970 0.0970
vn 0.0970 0.0970 -0.9905
vn 0.0970 -0.0970 -0.9905
vn -0.0970 -0.0970 -0.9905
vn -0.0970 0.0970 -0.9905
vn 0.9905 0.0970 0.0970
vn 0.9905 -0.0970 0.0970
vn 0.9905 -0.0970 -0.0970
vn 0.9905 0.0970 -0.0970
vn -0.0970 0.0970 0.9905
vn -0.0970 -0.0970 0.9905
vn 0.0970 -0.0970 0.9905
vn 0.0970 0.0970 0.9905
vn 0.3809 -0.0968 0.9195
vn 0.3809 0.0968 0.9195
vn 0.7038 -0.0968 0.7038
vn 0.7038 0.0968 0.7038
vn 0.9195 -0.0969 0.3809
vn 0.9195 0.0968 0.3809
vn -0.3809 -0.0968 -0.9195
vn -0.3809 0.0968 -0.9195
vn -0.7038 -0.0968 -0.7038
vn -0.7038 0.0968 -0.7038
vn -0.9195 -0.0969 -0.3809
vn -0.9195 0.0968 -0.3809
vn 0.9195 -0.0968 -0.3809
vn 0.9195 0.0969 -0.3809
vn 0.7038 -0.0968 -0.7038
vn 0.7038 0.0968 -0.7038
vn 0.3809 -0.0968 -0.9195
vn 0.3809 0.0968 -0.9195
vn -0.9195 -0.0968 0.3809
vn -0.9195 0.0969 0.3809
vn -0.7038 -0.0968 0.7038
vn -0.7038 0.0968 0.7038
vn -0.3809 -0.0968 0.9195
vn -0.3809 0.0968 0.9195
vn 0.0398 0.9189 -0.3925
vn -0.0398 0.9189 -0.3925
vn 0.0703 0.6995 -0.7112
vn -0.0703 0.6995 -0.7112
vn 0.0901 0.3771 -0.9218
vn -0.0901 0.3771 -0.9218
vn 0.5083 0.6952 -0.5083
vn 0.2850 0.9152 -0.2850
vn 0.3724 0.9152 -0.1543
vn 0.6641 0.6952 -0.2751
vn 0.2751 0.6952 -0.6641
vn 0.1543 0.9152 -0.3724
vn 0.6557 0.3744 -0.6557
vn 0.8567 0.3744 -0.3549
vn 0.3549 0.3744 -0.8567
vn 0.9218 0.3771 -0.0901
vn 0.7112 0.6995 -0.0703
vn 0.3925 0.9189 -0.0398
vn 0.3925 0.9189 0.0398
vn 0.7112 0.6995 0.0703
vn 0.9218 0.3771 0.0901
vn 0.5083 0.6952 0.5083
vn 0.2850 0.9152 0.2850
vn 0.1543 0.9152 0.3724
vn 0.2751 0.6952 0.6641
vn 0.6641 0.6952 0.2751
vn 0.3724 0.9152 0.1543
vn 0.6557 0.3744 0.6557
vn 0.3549 0.3744 0.8567
vn 0.8567 0.3744 0.3549
vn 0.0901 0.3771 0.9218
vn 0.0703 0.6995 0.7112
vn 0.0398 0.9189 0.3925
vn -0.0398 0.9189 0.3925
vn -0.0703 0.6995 0.7112
vn -0.0901 0.3771 0.9218
vn -0.5083 0.6952 0.5083
vn -0.2850 0.9152 0.2850
vn -0.3724 0.9152 0.1543
vn -0.6641 0.6952 0.2751
vn -0.2751 0.6952 0.6641
vn -0.1543 0.9152 0.3724
vn -0.6557 0.3744 0.6557
vn -0.8567 0.3744 0.3549
vn -0.3549 0.3744 0.8567
vn -0.9218 0.3771 0.0901
vn -0.7112 0.6995 0.0703
vn -0.3925 0.9189 0.0398
vn -0.3925 0.9189 -0.0398
vn -0.7112 0.6995 -0.0703
vn -0.9218 0.3771 -0.0901
vn -0.5083 0.6952 -0.5083
vn -0.2850 0.9152 -0.2850
vn -0.1543 0.9152 -0.3724
vn -0.2751 0.6952 -0.6641
vn -0.6641 0.6952 -0.2751
vn -0.3724 0.9152 -0.1543
vn -0.6557 0.3744 -0.6557
vn -0.3549 0.3744 -0.8567
vn -0.8567 0.3744 -0.3549
vn 0.0398 -0.9189 0.3925
vn -0.0398 -0.9189 0.3925
vn 0.0703 -0.6995 0.7112
vn -0.0703 -0.6995 0.7112
vn 0.0901 -0.3771 0.9218
vn -0.0901 -0.3771 0.9218
vn -0.5083 -0.6952 0.5083
vn -0.2850 -0.9152 0.2850
vn -0.1543 -0.9152 0.3724
vn -0.2751 -0.6952 0.6641
vn -0.6641 -0.6952 0.2751
vn -0.3724 -0.9152 0.1543
vn -0.6557 -0.3744 0.6557
vn -0.3549 -0.3744 0.8567
vn -0.8567 -0.3744 0.3549
vn -0.7112 -0.6995 0.0703
vn -0.3925 -0.9189 0.0398
vn -0.9218 -0.3771 0.0901
vn -0.3925 -0.9189 -0.0398
vn -0.7112 -0.6995 -0.0703
vn -0.9218 -0.3771 -0.0901
vn -0.5083 -0.6952 -0.5083
vn -0.2850 -0.9152 -0.2850
vn -0.3724 -0.9152 -0.1543
vn -0.6641 -0.6952 -0.2751
vn -0.2751 -0.6952 -0.6641
vn -0.1543 -0.9152 -0.3724
vn -0.6557 -0.3744 -0.6557
vn -0.8567 -0.3744 -0.3549
vn -0.3549 -0.3744 -0.8567
vn -0.0703 -0.6995 -0.7112
vn -0.0398 -0.9189 -0.3925
vn -0.0901 -0.3771 -0.9218
vn 0.0398 -0.9189 -0.3925
vn 0.0703 -0.6995 -0.7112
vn 0.0901 -0.3771 -0.9218
vn 0.5083 -0.6952 -0.5083
vn 0.2850 -0.9152 -0.2850
vn 0.1543 -0.9152 -0.3724
vn 0.2751 -0.6952 -0.6641
vn 0.6641 -0.6952 -0.2751
vn 0.3724 -0.9152 -0.1543
vn 0.6557 -0.3744 -0.6557
vn 0.3549 -0.3744 -0.8567
vn 0.8567 -0.3744 -0.3549
vn 0.7112 -0.6995 -0.0703
vn 0.3925 -0.9189 -0.0398
vn 0.9218 -0.3771 -0.0901
vn 0.3925 -0.9189 0.0398
vn 0.7112 -0.6995 0.0703
vn 0.9218 -0.3771 0.0901
vn 0.5083 -0.6952 0.5083
vn 0.2850 -0.9152 0.2850
vn 0.3724 -0.9152 0.1543
vn 0.6641 -0.6952 0.2751
vn 0.2751 -0.6952 0.6641
vn 0.1543 -0.9152 0.3724
vn 0.6557 -0.3744 0.6557
vn 0.8567 -0.3744 0.3549
vn 0.3549 -0.3744 0.8567
# 220 vertex normals

o kuvalda
g kuvalda
usemtl wire_028028177
s 1
f 1//1 2//2 3//3 
f 3//3 4//4 1//1 
s 2
f 5//5 6//6 7//7 
f 5//5 7//7 8//8 
f 6//6 9//9 10//10 
f 6//6 10//10 7//7 
f 9//9 11//11 12//12 
f 9//9 12//12 10//10 
f 11//11 13//13 14//14 
f 11//11 14//14 12//12 
f 13//13 15//15 16//16 
f 13//13 16//16 14//14 
f 15//15 17//17 18//18 
f 15//15 18//18 16//16 
f 19//19 20//20 21//21 
f 19//19 21//21 22//22 
f 20//20 23//23 24//24 
f 20//20 24//24 21//21 
f 23//23 25//25 26//26 
f 23//23 26//26 24//24 
f 25//25 27//27 28//28 
f 25//25 28//28 26//26 
f 27//27 29//29 30//30 
f 27//27 30//30 28//28 
f 29//29 5//5 8//8 
f 29//29 8//8 30//30 
f 31//31 32//32 19//19 
f 19//19 22//22 31//31 
f 33//33 34//34 35//35 
f 33//33 35//35 36//36 
f 34//34 37//37 38//38 
f 34//34 38//38 35//35 
f 37//37 39//39 40//40 
f 37//37 40//40 38//38 
f 39//39 41//41 42//42 
f 39//39 42//42 40//40 
f 41//41 43//43 44//44 
f 41//41 44//44 42//42 
f 43//43 32//32 31//31 
f 43//43 31//31 44//44 
f 45//45 46//46 47//47 
f 45//45 47//47 48//48 
f 46//46 49//49 50//50 
f 46//46 50//50 47//47 
f 49//49 51//51 52//52 
f 49//49 52//52 50//50 
f 51//51 53//53 54//54 
f 51//51 54//54 52//52 
f 53//53 55//55 56//56 
f 53//53 56//56 54//54 
f 55//55 33//33 36//36 
f 55//55 36//36 56//56 
f 18//18 17//17 45//45 
f 45//45 48//48 18//18 
s 1
f 33//33 57//57 58//58 
f 45//45 59//59 57//57 
f 5//5 60//60 59//59 
f 32//32 58//58 60//60 
f 57//57 46//46 45//45 
f 57//57 49//49 46//46 
f 57//57 51//51 49//49 
f 57//57 53//53 51//51 
f 57//57 55//55 53//53 
f 57//57 33//33 55//55 
f 58//58 34//34 33//33 
f 58//58 37//37 34//34 
f 58//58 39//39 37//37 
f 58//58 41//41 39//39 
f 58//58 43//43 41//41 
f 58//58 32//32 43//43 
f 60//60 19//19 32//32 
f 60//60 20//20 19//19 
f 60//60 23//23 20//20 
f 60//60 25//25 23//23 
f 60//60 27//27 25//25 
f 60//60 29//29 27//27 
f 60//60 5//5 29//29 
f 59//59 6//6 5//5 
f 59//59 9//9 6//6 
f 59//59 11//11 9//9 
f 59//59 13//13 11//11 
f 59//59 15//15 13//13 
f 59//59 17//17 15//15 
f 59//59 45//45 17//17 
f 61//61 62//62 63//63 
f 63//63 64//64 61//61 
f 65//65 66//66 67//67 
f 67//67 68//68 65//65 
f 69//69 70//70 71//71 
f 71//71 72//72 69//69 
f 73//73 74//74 75//75 
f 75//75 76//76 73//73 
f 16//16 18//18 22//22 
f 18//18 48//48 31//31 
f 48//48 47//47 44//44 
f 47//47 50//50 42//42 
f 50//50 52//52 40//40 
f 52//52 54//54 38//38 
f 54//54 56//56 35//35 
f 56//56 36//36 35//35 
f 35//35 38//38 54//54 
f 38//38 40//40 52//52 
f 40//40 42//42 50//50 
f 42//42 44//44 47//47 
f 44//44 31//31 48//48 
f 31//31 22//22 18//18 
f 22//22 21//21 16//16 
f 21//21 24//24 16//16 
f 24//24 26//26 12//12 
f 26//26 28//28 10//10 
f 28//28 30//30 7//7 
f 30//30 8//8 7//7 
f 7//7 10//10 28//28 
f 10//10 12//12 26//26 
f 12//12 14//14 24//24 
f 14//14 16//16 24//24 
f 77//77 78//78 76//76 
f 75//75 77//77 76//76 
f 79//79 80//80 78//78 
f 77//77 79//79 78//78 
f 81//81 82//82 80//80 
f 79//79 81//81 80//80 
f 70//70 69//69 82//82 
f 81//81 70//70 82//82 
f 83//83 84//84 68//68 
f 67//67 83//83 68//68 
f 85//85 86//86 84//84 
f 83//83 85//85 84//84 
f 87//87 88//88 86//86 
f 85//85 87//87 86//86 
f 62//62 61//61 88//88 
f 87//87 62//62 88//88 
f 89//89 90//90 72//72 
f 71//71 89//89 72//72 
f 91//91 92//92 90//90 
f 89//89 91//91 90//90 
f 93//93 94//94 92//92 
f 91//91 93//93 92//92 
f 66//66 65//65 94//94 
f 93//93 66//66 94//94 
f 95//95 96//96 64//64 
f 63//63 95//95 64//64 
f 97//97 98//98 96//96 
f 95//95 97//97 96//96 
f 99//99 100//100 98//98 
f 97//97 99//99 98//98 
f 74//74 73//73 100//100 
f 99//99 74//74 100//100 
f 101//101 102//102 60//60 
f 58//58 101//101 60//60 
f 103//103 104//104 102//102 
f 101//101 103//103 102//102 
f 105//105 106//106 104//104 
f 103//103 105//105 104//104 
f 65//65 68//68 106//106 
f 105//105 65//65 106//106 
f 107//107 108//108 109//109 
f 110//110 107//107 109//109 
f 111//111 112//112 108//108 
f 107//107 111//111 108//108 
f 113//113 107//107 110//110 
f 114//114 113//113 110//110 
f 115//115 111//111 107//107 
f 113//113 115//115 107//107 
f 112//112 103//103 101//101 
f 111//111 105//105 103//103 
f 94//94 65//65 105//105 
f 113//113 92//92 94//94 
f 114//114 90//90 92//92 
f 116//116 72//72 90//90 
f 110//110 117//117 116//116 
f 109//109 118//118 117//117 
f 109//109 58//58 118//118 
f 58//58 109//109 108//108 
f 58//58 108//108 112//112 
f 117//117 110//110 109//109 
f 103//103 112//112 111//111 
f 116//116 114//114 110//110 
f 105//105 111//111 115//115 
f 92//92 113//113 114//114 
f 94//94 115//115 113//113 
f 112//112 101//101 58//58 
f 115//115 94//94 105//105 
f 116//116 90//90 114//114 
f 119//119 118//118 58//58 
f 57//57 119//119 58//58 
f 120//120 117//117 118//118 
f 119//119 120//120 118//118 
f 121//121 116//116 117//117 
f 120//120 121//121 117//117 
f 69//69 72//72 116//116 
f 121//121 69//69 116//116 
f 122//122 123//123 124//124 
f 125//125 122//122 124//124 
f 126//126 127//127 123//123 
f 122//122 126//126 123//123 
f 128//128 122//122 125//125 
f 129//129 128//128 125//125 
f 130//130 126//126 122//122 
f 128//128 130//130 122//122 
f 127//127 120//120 119//119 
f 126//126 121//121 120//120 
f 82//82 69//69 121//121 
f 128//128 80//80 82//82 
f 129//129 78//78 80//80 
f 131//131 76//76 78//78 
f 125//125 132//132 131//131 
f 124//124 133//133 132//132 
f 124//124 57//57 133//133 
f 57//57 124//124 123//123 
f 57//57 123//123 127//127 
f 132//132 125//125 124//124 
f 120//120 127//127 126//126 
f 131//131 129//129 125//125 
f 121//121 126//126 130//130 
f 80//80 128//128 129//129 
f 82//82 130//130 128//128 
f 127//127 119//119 57//57 
f 130//130 82//82 121//121 
f 131//131 78//78 129//129 
f 134//134 133//133 57//57 
f 59//59 134//134 57//57 
f 135//135 132//132 133//133 
f 134//134 135//135 133//133 
f 136//136 131//131 132//132 
f 135//135 136//136 132//132 
f 73//73 76//76 131//131 
f 136//136 73//73 131//131 
f 137//137 138//138 139//139 
f 140//140 137//137 139//139 
f 141//141 142//142 138//138 
f 137//137 141//141 138//138 
f 143//143 137//137 140//140 
f 144//144 143//143 140//140 
f 145//145 141//141 137//137 
f 143//143 145//145 137//137 
f 142//142 135//135 134//134 
f 141//141 136//136 135//135 
f 100//100 73//73 136//136 
f 143//143 98//98 100//100 
f 144//144 96//96 98//98 
f 146//146 64//64 96//96 
f 140//140 147//147 146//146 
f 139//139 148//148 147//147 
f 139//139 59//59 148//148 
f 59//59 139//139 138//138 
f 59//59 138//138 142//142 
f 147//147 140//140 139//139 
f 135//135 142//142 141//141 
f 146//146 144//144 140//140 
f 136//136 141//141 145//145 
f 98//98 143//143 144//144 
f 100//100 145//145 143//143 
f 142//142 134//134 59//59 
f 145//145 100//100 136//136 
f 146//146 96//96 144//144 
f 149//149 148//148 59//59 
f 60//60 149//149 59//59 
f 150//150 147//147 148//148 
f 149//149 150//150 148//148 
f 151//151 146//146 147//147 
f 150//150 151//151 147//147 
f 61//61 64//64 146//146 
f 151//151 61//61 146//146 
f 152//152 153//153 154//154 
f 155//155 152//152 154//154 
f 156//156 157//157 153//153 
f 152//152 156//156 153//153 
f 158//158 152//152 155//155 
f 159//159 158//158 155//155 
f 160//160 156//156 152//152 
f 158//158 160//160 152//152 
f 157//157 150//150 149//149 
f 156//156 151//151 150//150 
f 88//88 61//61 151//151 
f 158//158 86//86 88//88 
f 159//159 84//84 86//86 
f 106//106 68//68 84//84 
f 155//155 104//104 106//106 
f 154//154 102//102 104//104 
f 154//154 60//60 102//102 
f 60//60 154//154 153//153 
f 60//60 153//153 157//157 
f 104//104 155//155 154//154 
f 150//150 157//157 156//156 
f 106//106 159//159 155//155 
f 151//151 156//156 160//160 
f 86//86 158//158 159//159 
f 88//88 160//160 158//158 
f 157//157 149//149 60//60 
f 160//160 88//88 151//151 
f 106//106 84//84 159//159 
f 3//3 161//161 162//162 
f 3//3 162//162 4//4 
f 161//161 163//163 164//164 
f 161//161 164//164 162//162 
f 163//163 165//165 166//166 
f 163//163 166//166 164//164 
f 165//165 75//75 74//74 
f 165//165 74//74 166//166 
f 167//167 168//168 169//169 
f 170//170 167//167 169//169 
f 171//171 172//172 168//168 
f 167//167 171//171 168//168 
f 173//173 167//167 170//170 
f 174//174 173//173 170//170 
f 175//175 171//171 167//167 
f 173//173 175//175 167//167 
f 172//172 176//176 177//177 
f 171//171 178//178 176//176 
f 95//95 63//63 178//178 
f 173//173 97//97 95//95 
f 174//174 99//99 97//97 
f 166//166 74//74 99//99 
f 170//170 164//164 166//166 
f 169//169 162//162 164//164 
f 169//169 4//4 162//162 
f 4//4 169//169 168//168 
f 4//4 168//168 172//172 
f 164//164 170//170 169//169 
f 176//176 172//172 171//171 
f 166//166 174//174 170//170 
f 178//178 171//171 175//175 
f 97//97 173//173 174//174 
f 95//95 175//175 173//173 
f 172//172 177//177 4//4 
f 175//175 95//95 178//178 
f 166//166 99//99 174//174 
f 4//4 177//177 179//179 
f 4//4 179//179 1//1 
f 177//177 176//176 180//180 
f 177//177 180//180 179//179 
f 176//176 178//178 181//181 
f 176//176 181//181 180//180 
f 178//178 63//63 62//62 
f 178//178 62//62 181//181 
f 182//182 183//183 184//184 
f 185//185 182//182 184//184 
f 186//186 187//187 183//183 
f 182//182 186//186 183//183 
f 188//188 182//182 185//185 
f 189//189 188//188 185//185 
f 190//190 186//186 182//182 
f 188//188 190//190 182//182 
f 187//187 191//191 192//192 
f 186//186 193//193 191//191 
f 83//83 67//67 193//193 
f 188//188 85//85 83//83 
f 189//189 87//87 85//85 
f 181//181 62//62 87//87 
f 185//185 180//180 181//181 
f 184//184 179//179 180//180 
f 184//184 1//1 179//179 
f 1//1 184//184 183//183 
f 1//1 183//183 187//187 
f 180//180 185//185 184//184 
f 191//191 187//187 186//186 
f 181//181 189//189 185//185 
f 193//193 186//186 190//190 
f 85//85 188//188 189//189 
f 83//83 190//190 188//188 
f 187//187 192//192 1//1 
f 190//190 83//83 193//193 
f 181//181 87//87 189//189 
f 1//1 192//192 194//194 
f 1//1 194//194 2//2 
f 192//192 191//191 195//195 
f 192//192 195//195 194//194 
f 191//191 193//193 196//196 
f 191//191 196//196 195//195 
f 193//193 67//67 66//66 
f 193//193 66//66 196//196 
f 197//197 198//198 199//199 
f 200//200 197//197 199//199 
f 201//201 202//202 198//198 
f 197//197 201//201 198//198 
f 203//203 197//197 200//200 
f 204//204 203//203 200//200 
f 205//205 201//201 197//197 
f 203//203 205//205 197//197 
f 202//202 206//206 207//207 
f 201//201 208//208 206//206 
f 89//89 71//71 208//208 
f 203//203 91//91 89//89 
f 204//204 93//93 91//91 
f 196//196 66//66 93//93 
f 200//200 195//195 196//196 
f 199//199 194//194 195//195 
f 199//199 2//2 194//194 
f 2//2 199//199 198//198 
f 2//2 198//198 202//202 
f 195//195 200//200 199//199 
f 206//206 202//202 201//201 
f 196//196 204//204 200//200 
f 208//208 201//201 205//205 
f 91//91 203//203 204//204 
f 89//89 205//205 203//203 
f 202//202 207//207 2//2 
f 205//205 89//89 208//208 
f 196//196 93//93 204//204 
f 2//2 207//207 209//209 
f 2//2 209//209 3//3 
f 207//207 206//206 210//210 
f 207//207 210//210 209//209 
f 206//206 208//208 211//211 
f 206//206 211//211 210//210 
f 208//208 71//71 70//70 
f 208//208 70//70 211//211 
f 212//212 213//213 214//214 
f 215//215 212//212 214//214 
f 216//216 217//217 213//213 
f 212//212 216//216 213//213 
f 218//218 212//212 215//215 
f 219//219 218//218 215//215 
f 220//220 216//216 212//212 
f 218//218 220//220 212//212 
f 217//217 163//163 161//161 
f 216//216 165//165 163//163 
f 77//77 75//75 165//165 
f 218//218 79//79 77//77 
f 219//219 81//81 79//79 
f 211//211 70//70 81//81 
f 215//215 210//210 211//211 
f 214//214 209//209 210//210 
f 214//214 3//3 209//209 
f 3//3 214//214 213//213 
f 3//3 213//213 217//217 
f 210//210 215//215 214//214 
f 163//163 217//217 216//216 
f 211//211 219//219 215//215 
f 165//165 216//216 220//220 
f 79//79 218//218 219//219 
f 77//77 220//220 218//218 
f 217//217 161//161 3//3 
f 220//220 77//77 165//165 
f 211//211 81//81 219//219 
# 0 polygons - 436 triangles

