# 3ds Max Wavefront OBJ Exporter v0.99 - (c)2007 guruware
# File Created: 15.03.2024 10:34:38

mtllib pin.mtl

#
# object ?????????_?????
#

v  3833.7683 560.0000 -6303.1948
v  3820.7678 600.0000 -6295.6938
v  3833.7683 560.0000 -6258.1948
v  3820.7681 600.0000 -6265.6938
v  3790.7681 600.0000 -6295.6938
v  3777.7683 560.0000 -6303.1948
v  3790.7678 600.0000 -6265.6938
v  3777.7683 560.0000 -6258.1948
v  3814.4956 52.0705 -6258.1943
v  3814.4956 52.0705 -6303.1943
v  3814.7681 50.0000 -6258.1938
v  3814.7681 50.0000 -6303.1938
v  3814.4954 47.9295 -6258.1938
v  3814.4954 47.9295 -6303.1938
v  3813.6960 46.0000 -6258.1938
v  3813.6960 46.0000 -6303.1938
v  3812.4246 44.3431 -6258.1938
v  3812.4246 44.3431 -6303.1938
v  3810.7681 43.0718 -6258.1938
v  3810.7681 43.0718 -6303.1938
v  3808.8384 42.2726 -6258.1938
v  3808.8384 42.2726 -6303.1938
v  3806.7681 42.0000 -6258.1943
v  3806.7681 42.0000 -6303.1943
v  3804.6973 42.2726 -6258.1938
v  3804.6973 42.2726 -6303.1938
v  3802.7681 43.0718 -6258.1938
v  3802.7681 43.0718 -6303.1938
v  3801.1111 44.3431 -6258.1938
v  3801.1111 44.3431 -6303.1938
v  3799.8396 46.0000 -6258.1938
v  3799.8396 46.0000 -6303.1938
v  3799.0403 47.9295 -6258.1938
v  3799.0403 47.9295 -6303.1938
v  3798.7681 50.0000 -6258.1938
v  3798.7681 50.0000 -6303.1938
v  3799.0405 52.0705 -6258.1943
v  3799.0405 52.0705 -6303.1943
v  3799.8396 54.0000 -6258.1938
v  3799.8396 54.0000 -6303.1938
v  3801.1111 55.6569 -6258.1938
v  3801.1111 55.6569 -6303.1938
v  3802.7681 56.9282 -6258.1938
v  3802.7681 56.9282 -6303.1938
v  3804.6973 57.7274 -6258.1938
v  3804.6973 57.7274 -6303.1938
v  3806.7681 58.0000 -6258.1943
v  3806.7681 58.0000 -6303.1943
v  3808.8384 57.7274 -6258.1938
v  3808.8384 57.7274 -6303.1938
v  3810.7681 56.9282 -6258.1938
v  3810.7681 56.9282 -6303.1938
v  3812.4246 55.6569 -6258.1938
v  3812.4246 55.6569 -6303.1938
v  3813.6960 54.0000 -6258.1938
v  3813.6960 54.0000 -6303.1938
v  3777.7686 0.0000 -6303.1948
v  3833.7683 0.0000 -6303.1948
v  3833.7686 0.0000 -6258.1948
v  3777.7683 0.0000 -6258.1948
# 60 vertices

vn 0.7082 0.1622 -0.6871
vn 0.4755 0.7031 -0.5287
vn 0.7082 0.1622 0.6871
vn 0.4755 0.7031 0.5287
vn -0.4755 0.7031 -0.5287
vn -0.7082 0.1622 -0.6871
vn -0.4755 0.7031 0.5287
vn -0.7082 0.1622 0.6871
vn -0.6521 -0.1748 0.7377
vn -0.6521 -0.1747 -0.7377
vn -0.6747 0.0003 0.7380
vn -0.6755 -0.0002 -0.7373
vn -0.6521 0.1747 0.7377
vn -0.6521 0.1748 -0.7377
vn -0.5846 0.3376 0.7377
vn -0.5846 0.3376 -0.7377
vn -0.4774 0.4774 0.7377
vn -0.4774 0.4774 -0.7377
vn -0.3376 0.5846 0.7377
vn -0.3376 0.5847 -0.7377
vn -0.1748 0.6520 0.7378
vn -0.1746 0.6522 -0.7376
vn -0.0000 0.6752 0.7377
vn -0.0000 0.6751 -0.7377
vn 0.1748 0.6520 0.7378
vn 0.1746 0.6522 -0.7376
vn 0.3375 0.5846 0.7377
vn 0.3376 0.5847 -0.7377
vn 0.4773 0.4774 0.7377
vn 0.4774 0.4774 -0.7377
vn 0.5846 0.3376 0.7377
vn 0.5846 0.3376 -0.7377
vn 0.6521 0.1747 0.7378
vn 0.6521 0.1747 -0.7378
vn 0.6748 0.0002 0.7380
vn 0.6754 -0.0003 -0.7374
vn 0.6521 -0.1747 0.7377
vn 0.6521 -0.1747 -0.7377
vn 0.5844 -0.3376 0.7379
vn 0.5849 -0.3375 -0.7375
vn 0.4773 -0.4774 0.7377
vn 0.4774 -0.4774 -0.7377
vn 0.3376 -0.5847 0.7377
vn 0.3375 -0.5847 -0.7377
vn 0.1748 -0.6521 0.7377
vn 0.1747 -0.6522 -0.7377
vn -0.0000 -0.6752 0.7376
vn -0.0000 -0.6751 -0.7378
vn -0.1748 -0.6521 0.7377
vn -0.1747 -0.6522 -0.7377
vn -0.3376 -0.5847 0.7377
vn -0.3376 -0.5847 -0.7377
vn -0.4774 -0.4774 0.7377
vn -0.4774 -0.4774 -0.7377
vn -0.5844 -0.3377 0.7379
vn -0.5849 -0.3376 -0.7375
vn -0.5773 -0.5773 -0.5774
vn 0.5773 -0.5773 -0.5774
vn 0.5774 -0.5774 0.5773
vn -0.5774 -0.5774 0.5773
# 60 vertex normals

o ?????????_?????
g ?????????_?????
usemtl wire_006135058
s 1
f 1//1 2//2 3//3 
f 3//3 2//2 4//4 
f 5//5 6//6 7//7 
f 7//7 6//6 8//8 
s 2
f 3//3 4//4 8//8 
f 8//8 4//4 7//7 
f 6//6 5//5 1//1 
f 1//1 5//5 2//2 
s 4
f 2//2 5//5 4//4 
f 4//4 5//5 7//7 
s 1
f 9//9 10//10 11//11 
f 11//11 10//10 12//12 
f 11//11 12//12 13//13 
f 13//13 12//12 14//14 
f 13//13 14//14 15//15 
f 15//15 14//14 16//16 
f 15//15 16//16 17//17 
f 17//17 16//16 18//18 
f 17//17 18//18 19//19 
f 19//19 18//18 20//20 
f 19//19 20//20 21//21 
f 21//21 20//20 22//22 
f 21//21 22//22 23//23 
f 23//23 22//22 24//24 
f 23//23 24//24 25//25 
f 25//25 24//24 26//26 
f 25//25 26//26 27//27 
f 27//27 26//26 28//28 
f 27//27 28//28 29//29 
f 29//29 28//28 30//30 
f 29//29 30//30 31//31 
f 31//31 30//30 32//32 
f 31//31 32//32 33//33 
f 33//33 32//32 34//34 
f 33//33 34//34 35//35 
f 35//35 34//34 36//36 
f 35//35 36//36 37//37 
f 37//37 36//36 38//38 
f 37//37 38//38 39//39 
f 39//39 38//38 40//40 
f 39//39 40//40 41//41 
f 41//41 40//40 42//42 
f 41//41 42//42 43//43 
f 43//43 42//42 44//44 
f 43//43 44//44 45//45 
f 45//45 44//44 46//46 
f 45//45 46//46 47//47 
f 47//47 46//46 48//48 
f 47//47 48//48 49//49 
f 49//49 48//48 50//50 
f 49//49 50//50 51//51 
f 51//51 50//50 52//52 
f 51//51 52//52 53//53 
f 53//53 52//52 54//54 
f 53//53 54//54 55//55 
f 55//55 54//54 56//56 
f 55//55 56//56 9//9 
f 9//9 56//56 10//10 
s 2
f 38//38 36//36 57//57 
f 57//57 36//36 34//34 
f 57//57 34//34 32//32 
f 32//32 30//30 57//57 
f 57//57 30//30 28//28 
f 57//57 28//28 26//26 
f 26//26 24//24 57//57 
f 57//57 24//24 58//58 
f 58//58 24//24 22//22 
f 58//58 22//22 20//20 
f 20//20 18//18 58//58 
f 58//58 18//18 16//16 
f 58//58 16//16 14//14 
f 14//14 12//12 58//58 
f 58//58 12//12 10//10 
f 58//58 10//10 1//1 
f 1//1 10//10 56//56 
f 1//1 56//56 54//54 
f 54//54 52//52 1//1 
f 1//1 52//52 50//50 
f 1//1 50//50 48//48 
f 1//1 48//48 6//6 
f 6//6 48//48 46//46 
f 6//6 46//46 44//44 
f 44//44 42//42 6//6 
f 6//6 42//42 40//40 
f 6//6 40//40 38//38 
f 6//6 38//38 57//57 
s 1
f 3//3 59//59 1//1 
f 1//1 59//59 58//58 
s 2
f 9//9 11//11 59//59 
f 59//59 11//11 13//13 
f 59//59 13//13 15//15 
f 15//15 17//17 59//59 
f 59//59 17//17 19//19 
f 59//59 19//19 21//21 
f 21//21 23//23 59//59 
f 59//59 23//23 60//60 
f 60//60 23//23 25//25 
f 60//60 25//25 27//27 
f 27//27 29//29 60//60 
f 60//60 29//29 31//31 
f 60//60 31//31 33//33 
f 33//33 35//35 60//60 
f 60//60 35//35 37//37 
f 60//60 37//37 8//8 
f 8//8 37//37 39//39 
f 8//8 39//39 41//41 
f 41//41 43//43 8//8 
f 8//8 43//43 45//45 
f 8//8 45//45 47//47 
f 8//8 47//47 3//3 
f 3//3 47//47 49//49 
f 3//3 49//49 51//51 
f 51//51 53//53 3//3 
f 3//3 53//53 55//55 
f 3//3 55//55 9//9 
f 3//3 9//9 59//59 
s 1
f 6//6 57//57 8//8 
f 8//8 57//57 60//60 
s 4
f 60//60 57//57 59//59 
f 59//59 57//57 58//58 
# 0 polygons - 120 triangles

