# 3ds Max Wavefront OBJ Exporter v0.99 - (c)2007 guruware
# File Created: 26.03.2024 17:29:27

mtllib railing_stand_obg.mtl

#
# object ?????????_??????
#

v  3.8067 1274.0446 -0.0000
v  3.8067 1274.0446 -1100.0000
v  3.5000 1276.3739 -0.0000
v  3.5000 1276.3740 -1100.0000
v  3.8067 1278.7032 -0.0000
v  3.8067 1278.7032 -1100.0000
v  4.7058 1280.8740 -0.0000
v  4.7058 1280.8740 -1100.0000
v  6.1360 1282.7379 -0.0000
v  6.1360 1282.7379 -1100.0000
v  8.0000 1284.1681 -0.0000
v  8.0000 1284.1681 -1100.0000
v  10.1706 1285.0674 -0.0000
v  10.1706 1285.0674 -1100.0000
v  12.5000 1285.3739 -0.0000
v  12.5000 1285.3739 -1100.0000
v  14.8294 1285.0674 -0.0000
v  14.8294 1285.0674 -1100.0000
v  17.0000 1284.1681 -0.0000
v  17.0000 1284.1681 -1100.0000
v  18.8640 1282.7379 -0.0000
v  18.8640 1282.7379 -1100.0000
v  20.2942 1280.8740 -0.0000
v  20.2942 1280.8740 -1100.0000
v  21.1933 1278.7032 -0.0000
v  21.1933 1278.7032 -1100.0000
v  21.5000 1276.3740 -0.0000
v  21.5000 1276.3739 -1100.0000
v  21.1933 1274.0446 -0.0000
v  21.1933 1274.0446 -1100.0000
v  20.2942 1271.8740 -0.0000
v  20.2942 1271.8740 -1100.0000
v  18.8640 1270.0100 -0.0000
v  18.8640 1270.0100 -1100.0000
v  17.0000 1268.5797 -0.0000
v  17.0000 1268.5797 -1100.0000
v  14.8294 1267.6807 -0.0000
v  14.8294 1267.6807 -1100.0000
v  12.5000 1267.3739 -0.0000
v  12.5000 1267.3739 -1100.0000
v  10.1706 1267.6807 -0.0000
v  10.1706 1267.6807 -1100.0000
v  8.0000 1268.5797 -0.0000
v  8.0000 1268.5797 -1100.0000
v  6.1360 1270.0100 -0.0000
v  6.1360 1270.0100 -1100.0000
v  4.7058 1271.8740 -0.0000
v  4.7058 1271.8740 -1100.0000
v  0.4259 1273.1387 -1100.0000
v  0.4259 1273.1387 -0.0000
v  0.0000 1276.3740 -1100.0000
v  0.0000 1276.3739 -0.0000
v  0.4259 1279.6093 -1100.0000
v  0.4259 1279.6093 -0.0000
v  1.6747 1282.6240 -1100.0000
v  1.6747 1282.6240 -0.0000
v  3.6612 1285.2129 -1100.0000
v  3.6612 1285.2129 -0.0000
v  6.2500 1287.1992 -1100.0000
v  6.2500 1287.1992 -0.0000
v  9.2648 1288.4481 -1100.0000
v  9.2648 1288.4481 -0.0000
v  12.5000 1288.8739 -1100.0000
v  12.5000 1288.8739 -0.0000
v  15.7352 1288.4481 -1100.0000
v  15.7352 1288.4481 -0.0000
v  18.7500 1287.1992 -1100.0000
v  18.7500 1287.1992 -0.0000
v  21.3388 1285.2129 -1100.0000
v  21.3388 1285.2129 -0.0000
v  23.3253 1282.6239 -1100.0000
v  23.3253 1282.6240 -0.0000
v  24.6347 1279.3739 -240.0000
v  24.5741 1279.6093 -0.0000
v  24.6347 1279.3740 -130.0000
v  24.9592 1277.3828 -130.0000
v  25.0000 1276.3740 -0.0000
v  24.9592 1275.3651 -130.0000
v  24.5741 1273.1387 -0.0000
v  24.6347 1273.3740 -130.0000
v  24.6347 1273.3739 -240.0000
v  23.3253 1270.1239 -0.0000
v  23.3253 1270.1240 -1100.0000
v  21.3388 1267.5352 -1100.0000
v  21.3388 1267.5352 -0.0000
v  18.7500 1265.5487 -1100.0000
v  18.7500 1265.5487 -0.0000
v  15.7352 1264.2998 -1100.0000
v  15.7352 1264.2998 -0.0000
v  12.5000 1263.8739 -1100.0000
v  12.5000 1263.8739 -0.0000
v  9.2648 1264.2998 -1100.0000
v  9.2648 1264.2998 -0.0000
v  6.2500 1265.5487 -1100.0000
v  6.2500 1265.5487 -0.0000
v  3.6612 1267.5352 -1100.0000
v  3.6612 1267.5352 -0.0000
v  1.6747 1270.1240 -1100.0000
v  1.6747 1270.1240 -0.0000
v  24.5741 1273.1387 -1100.0000
v  24.9592 1275.3651 -240.0000
v  25.0000 1276.3739 -1100.0000
v  24.9592 1277.3828 -240.0000
v  24.5741 1279.6093 -1100.0000
v  50.0000 1279.3739 -130.0000
v  50.0000 1273.3739 -130.0000
v  35.0000 1273.3739 -240.0000
v  50.0000 1273.3739 -190.0000
v  50.0000 1279.3739 -190.0000
v  35.0000 1279.3739 -240.0000
# 110 vertices

vn 0.6521 0.1747 0.7377
vn 0.6521 0.1747 -0.7377
vn 0.6751 0.0000 0.7377
vn 0.6751 -0.0000 -0.7377
vn 0.6521 -0.1747 0.7377
vn 0.6521 -0.1747 -0.7377
vn 0.5847 -0.3376 0.7377
vn 0.5847 -0.3376 -0.7377
vn 0.4774 -0.4774 0.7377
vn 0.4774 -0.4774 -0.7377
vn 0.3376 -0.5847 0.7377
vn 0.3376 -0.5847 -0.7377
vn 0.1747 -0.6521 0.7377
vn 0.1747 -0.6521 -0.7377
vn -0.0000 -0.6751 0.7377
vn 0.0000 -0.6751 -0.7377
vn -0.1747 -0.6521 0.7378
vn -0.1747 -0.6521 -0.7377
vn -0.3376 -0.5847 0.7377
vn -0.3376 -0.5846 -0.7377
vn -0.4774 -0.4774 0.7377
vn -0.4774 -0.4774 -0.7377
vn -0.5847 -0.3376 0.7377
vn -0.5847 -0.3376 -0.7377
vn -0.6521 -0.1747 0.7377
vn -0.6521 -0.1747 -0.7377
vn -0.6751 -0.0000 0.7377
vn -0.6751 0.0000 -0.7377
vn -0.6521 0.1747 0.7377
vn -0.6521 0.1747 -0.7377
vn -0.5847 0.3376 0.7377
vn -0.5847 0.3376 -0.7377
vn -0.4774 0.4774 0.7377
vn -0.4774 0.4774 -0.7377
vn -0.3376 0.5847 0.7377
vn -0.3376 0.5847 -0.7377
vn -0.1747 0.6521 0.7377
vn -0.1747 0.6521 -0.7377
vn -0.0000 0.6751 0.7377
vn 0.0000 0.6751 -0.7377
vn 0.1747 0.6521 0.7377
vn 0.1747 0.6521 -0.7377
vn 0.3376 0.5847 0.7377
vn 0.3376 0.5847 -0.7377
vn 0.4774 0.4774 0.7377
vn 0.4774 0.4774 -0.7377
vn 0.5847 0.3376 0.7377
vn 0.5847 0.3376 -0.7377
vn -0.7092 -0.1900 -0.6789
vn -0.7092 -0.1900 0.6789
vn -0.7343 0.0000 -0.6789
vn -0.7343 -0.0000 0.6789
vn -0.7092 0.1900 -0.6789
vn -0.7092 0.1900 0.6789
vn -0.6359 0.3671 -0.6789
vn -0.6359 0.3671 0.6789
vn -0.5192 0.5192 -0.6789
vn -0.5192 0.5192 0.6789
vn -0.3671 0.6359 -0.6789
vn -0.3671 0.6358 0.6789
vn -0.1900 0.7092 -0.6789
vn -0.1900 0.7092 0.6789
vn -0.0000 0.7342 -0.6789
vn 0.0000 0.7342 0.6789
vn 0.1900 0.7092 -0.6789
vn 0.1900 0.7092 0.6789
vn 0.3671 0.6358 -0.6789
vn 0.3671 0.6359 0.6789
vn 0.5192 0.5192 -0.6789
vn 0.5192 0.5192 0.6789
vn 0.6359 0.3671 -0.6789
vn 0.6359 0.3671 0.6788
vn 0.8031 0.5392 -0.2535
vn 0.7091 0.1902 0.6790
vn 0.8402 0.4770 0.2579
vn 0.6858 0.0556 0.7257
vn 0.7340 0.0000 0.6791
vn 0.6857 -0.0556 0.7257
vn 0.7091 -0.1902 0.6790
vn 0.8403 -0.4768 0.2579
vn 0.8031 -0.5392 -0.2535
vn 0.6359 -0.3671 0.6788
vn 0.6359 -0.3671 -0.6789
vn 0.5192 -0.5192 -0.6789
vn 0.5192 -0.5192 0.6789
vn 0.3671 -0.6359 -0.6789
vn 0.3671 -0.6359 0.6789
vn 0.1901 -0.7092 -0.6789
vn 0.1901 -0.7092 0.6789
vn 0.0000 -0.7342 -0.6789
vn -0.0000 -0.7342 0.6789
vn -0.1901 -0.7092 -0.6789
vn -0.1901 -0.7092 0.6789
vn -0.3671 -0.6359 -0.6789
vn -0.3671 -0.6359 0.6789
vn -0.5192 -0.5192 -0.6789
vn -0.5192 -0.5192 0.6789
vn -0.6359 -0.3671 -0.6789
vn -0.6359 -0.3671 0.6789
vn 0.7092 -0.1901 -0.6789
vn 0.6857 -0.0555 -0.7257
vn 0.7342 -0.0000 -0.6789
vn 0.6857 0.0555 -0.7257
vn 0.7092 0.1901 -0.6789
vn 0.5774 0.5773 0.5774
vn 0.5773 -0.5774 0.5774
vn 0.4801 -0.5942 -0.6453
vn 0.7292 -0.6759 -0.1070
vn 0.7292 0.6758 -0.1070
vn 0.4800 0.5943 -0.6453
# 110 vertex normals

o ?????????_??????
g ?????????_??????
usemtl wire_228184153
s 1
f 1//1 2//2 3//3 
f 3//3 2//2 4//4 
f 3//3 4//4 5//5 
f 5//5 4//4 6//6 
f 5//5 6//6 7//7 
f 7//7 6//6 8//8 
f 7//7 8//8 9//9 
f 9//9 8//8 10//10 
f 9//9 10//10 11//11 
f 11//11 10//10 12//12 
f 11//11 12//12 13//13 
f 13//13 12//12 14//14 
f 13//13 14//14 15//15 
f 15//15 14//14 16//16 
f 15//15 16//16 17//17 
f 17//17 16//16 18//18 
f 17//17 18//18 19//19 
f 19//19 18//18 20//20 
f 19//19 20//20 21//21 
f 21//21 20//20 22//22 
f 21//21 22//22 23//23 
f 23//23 22//22 24//24 
f 23//23 24//24 25//25 
f 25//25 24//24 26//26 
f 25//25 26//26 27//27 
f 27//27 26//26 28//28 
f 27//27 28//28 29//29 
f 29//29 28//28 30//30 
f 29//29 30//30 31//31 
f 31//31 30//30 32//32 
f 31//31 32//32 33//33 
f 33//33 32//32 34//34 
f 33//33 34//34 35//35 
f 35//35 34//34 36//36 
f 35//35 36//36 37//37 
f 37//37 36//36 38//38 
f 37//37 38//38 39//39 
f 39//39 38//38 40//40 
f 39//39 40//40 41//41 
f 41//41 40//40 42//42 
f 41//41 42//42 43//43 
f 43//43 42//42 44//44 
f 43//43 44//44 45//45 
f 45//45 44//44 46//46 
f 45//45 46//46 47//47 
f 47//47 46//46 48//48 
f 47//47 48//48 1//1 
f 1//1 48//48 2//2 
f 49//49 50//50 51//51 
f 51//51 50//50 52//52 
f 51//51 52//52 53//53 
f 53//53 52//52 54//54 
f 53//53 54//54 55//55 
f 55//55 54//54 56//56 
f 55//55 56//56 57//57 
f 57//57 56//56 58//58 
f 57//57 58//58 59//59 
f 59//59 58//58 60//60 
f 59//59 60//60 61//61 
f 61//61 60//60 62//62 
f 61//61 62//62 63//63 
f 63//63 62//62 64//64 
f 63//63 64//64 65//65 
f 65//65 64//64 66//66 
f 65//65 66//66 67//67 
f 67//67 66//66 68//68 
f 67//67 68//68 69//69 
f 69//69 68//68 70//70 
f 69//69 70//70 71//71 
f 71//71 70//70 72//72 
f 71//71 72//72 73//73 
f 73//73 72//72 74//74 
f 73//73 74//74 75//75 
f 75//75 74//74 76//76 
f 76//76 74//74 77//77 
f 76//76 77//77 78//78 
f 78//78 77//77 79//79 
f 78//78 79//79 80//80 
f 80//80 79//79 81//81 
f 81//81 79//79 82//82 
f 81//81 82//82 83//83 
f 83//83 82//82 84//84 
f 84//84 82//82 85//85 
f 84//84 85//85 86//86 
f 86//86 85//85 87//87 
f 86//86 87//87 88//88 
f 88//88 87//87 89//89 
f 88//88 89//89 90//90 
f 90//90 89//89 91//91 
f 90//90 91//91 92//92 
f 92//92 91//91 93//93 
f 92//92 93//93 94//94 
f 94//94 93//93 95//95 
f 94//94 95//95 96//96 
f 96//96 95//95 97//97 
f 96//96 97//97 98//98 
f 98//98 97//97 99//99 
f 98//98 99//99 49//49 
f 49//49 99//99 50//50 
f 83//83 100//100 81//81 
f 81//81 100//100 101//101 
f 101//101 100//100 102//102 
f 101//101 102//102 103//103 
f 103//103 102//102 104//104 
f 103//103 104//104 73//73 
f 73//73 104//104 71//71 
s 2
f 1//1 3//3 52//52 
f 52//52 3//3 5//5 
f 52//52 5//5 54//54 
f 54//54 5//5 7//7 
f 54//54 7//7 56//56 
f 56//56 7//7 9//9 
f 56//56 9//9 58//58 
f 58//58 9//9 11//11 
f 58//58 11//11 60//60 
f 60//60 11//11 13//13 
f 60//60 13//13 62//62 
f 62//62 13//13 15//15 
f 62//62 15//15 64//64 
f 64//64 15//15 66//66 
f 66//66 15//15 17//17 
f 66//66 17//17 68//68 
f 68//68 17//17 19//19 
f 68//68 19//19 70//70 
f 70//70 19//19 21//21 
f 70//70 21//21 72//72 
f 72//72 21//21 23//23 
f 72//72 23//23 74//74 
f 74//74 23//23 25//25 
f 74//74 25//25 77//77 
f 77//77 25//25 27//27 
f 77//77 27//27 79//79 
f 79//79 27//27 29//29 
f 79//79 29//29 31//31 
f 79//79 31//31 82//82 
f 82//82 31//31 33//33 
f 82//82 33//33 85//85 
f 85//85 33//33 35//35 
f 85//85 35//35 87//87 
f 87//87 35//35 37//37 
f 87//87 37//37 89//89 
f 89//89 37//37 39//39 
f 89//89 39//39 91//91 
f 91//91 39//39 93//93 
f 93//93 39//39 41//41 
f 93//93 41//41 95//95 
f 95//95 41//41 43//43 
f 95//95 43//43 97//97 
f 97//97 43//43 45//45 
f 97//97 45//45 99//99 
f 99//99 45//45 47//47 
f 99//99 47//47 50//50 
f 50//50 47//47 1//1 
f 50//50 1//1 52//52 
f 2//2 49//49 4//4 
f 4//4 49//49 51//51 
f 4//4 51//51 6//6 
f 6//6 51//51 53//53 
f 6//6 53//53 8//8 
f 8//8 53//53 55//55 
f 8//8 55//55 10//10 
f 10//10 55//55 57//57 
f 10//10 57//57 12//12 
f 12//12 57//57 59//59 
f 12//12 59//59 14//14 
f 14//14 59//59 61//61 
f 14//14 61//61 16//16 
f 16//16 61//61 63//63 
f 16//16 63//63 65//65 
f 2//2 48//48 49//49 
f 49//49 48//48 98//98 
f 98//98 48//48 46//46 
f 98//98 46//46 96//96 
f 96//96 46//46 44//44 
f 96//96 44//44 94//94 
f 94//94 44//44 42//42 
f 94//94 42//42 92//92 
f 92//92 42//42 40//40 
f 92//92 40//40 90//90 
f 90//90 40//40 88//88 
f 88//88 40//40 38//38 
f 88//88 38//38 86//86 
f 86//86 38//38 36//36 
f 86//86 36//36 84//84 
f 84//84 36//36 34//34 
f 84//84 34//34 83//83 
f 83//83 34//34 32//32 
f 83//83 32//32 100//100 
f 100//100 32//32 30//30 
f 100//100 30//30 102//102 
f 102//102 30//30 28//28 
f 102//102 28//28 26//26 
f 102//102 26//26 104//104 
f 104//104 26//26 24//24 
f 104//104 24//24 71//71 
f 71//71 24//24 22//22 
f 71//71 22//22 69//69 
f 69//69 22//22 20//20 
f 69//69 20//20 67//67 
f 67//67 20//20 18//18 
f 67//67 18//18 65//65 
f 65//65 18//18 16//16 
f 75//75 76//76 105//105 
f 105//105 76//76 106//106 
f 106//106 76//76 78//78 
f 106//106 78//78 80//80 
s 4
f 81//81 107//107 80//80 
f 80//80 107//107 108//108 
f 80//80 108//108 106//106 
s 1
f 109//109 105//105 108//108 
f 108//108 105//105 106//106 
s 2
f 81//81 101//101 107//107 
f 107//107 101//101 103//103 
f 107//107 103//103 110//110 
f 110//110 103//103 73//73 
s 1
f 110//110 109//109 107//107 
f 107//107 109//109 108//108 
s 4
f 73//73 75//75 110//110 
f 110//110 75//75 109//109 
f 109//109 75//75 105//105 
# 0 polygons - 220 triangles

