# 3ds Max Wavefront OBJ Exporter v0.99 - (c)2007 guruware
# File Created: 14.04.2024 23:52:48

mtllib line_for_deep.mtl

#
# object 
#

v  -20.0000 700.0000 12.0000
v  -20.0000 700.0000 -12.0000
v  -20.0000 -700.0001 -12.0000
v  -20.0000 -700.0000 12.0000
v  -12.0000 -700.0000 20.0000
v  12.0000 -700.0000 20.0000
v  12.0000 700.0001 20.0000
v  -12.0000 700.0000 20.0000
v  20.0000 -700.0001 12.0000
v  20.0000 -700.0000 -12.0000
v  20.0000 700.0000 -12.0000
v  20.0000 700.0000 12.0000
v  -12.0000 700.0001 -20.0000
v  12.0000 700.0000 -20.0000
v  12.0000 -700.0000 -20.0000
v  -12.0000 -700.0000 -20.0000
v  19.9615 700.0000 12.7841
v  19.9615 700.0000 -12.7841
v  19.8463 700.0000 13.5607
v  19.8463 700.0000 -13.5607
v  19.6555 700.0000 14.3223
v  19.6555 700.0000 -14.3223
v  19.3910 700.0000 15.0615
v  19.3910 700.0000 -15.0615
v  19.0554 700.0000 15.7712
v  19.0554 700.0000 -15.7712
v  18.6518 700.0000 16.4446
v  18.6518 700.0000 -16.4446
v  18.1841 700.0000 17.0751
v  18.1841 700.0000 -17.0751
v  17.6569 700.0000 17.6569
v  17.6569 700.0000 -17.6569
v  17.0751 700.0000 18.1841
v  17.0751 700.0000 -18.1841
v  16.4446 700.0000 18.6518
v  16.4446 700.0000 -18.6518
v  15.7712 700.0000 19.0554
v  15.7712 700.0000 -19.0554
v  15.0615 700.0000 19.3910
v  15.0615 700.0000 -19.3910
v  14.3223 700.0000 19.6555
v  14.3223 700.0000 -19.6555
v  13.5607 700.0000 19.8463
v  13.5607 700.0000 -19.8463
v  12.7841 700.0000 19.9615
v  12.7841 700.0000 -19.9615
v  -12.7841 700.0000 19.9615
v  -12.7841 700.0000 -19.9615
v  -13.5607 700.0000 19.8463
v  -13.5607 700.0000 -19.8463
v  -14.3223 700.0000 19.6555
v  -14.3223 700.0000 -19.6555
v  -15.0615 700.0000 19.3910
v  -15.0615 700.0000 -19.3910
v  -15.7712 700.0000 19.0554
v  -15.7712 700.0000 -19.0554
v  -16.4446 700.0000 18.6518
v  -16.4446 700.0000 -18.6518
v  -17.0751 700.0000 18.1841
v  -17.0751 700.0000 -18.1841
v  -17.6569 700.0000 17.6569
v  -17.6569 700.0000 -17.6569
v  -18.1841 700.0000 17.0751
v  -18.1841 700.0000 -17.0751
v  -18.6518 700.0000 16.4446
v  -18.6518 700.0000 -16.4446
v  -19.0554 700.0000 15.7712
v  -19.0554 700.0000 -15.7712
v  -19.3910 700.0000 15.0615
v  -19.3910 700.0000 -15.0615
v  -19.6555 700.0000 14.3223
v  -19.6555 700.0000 -14.3223
v  -19.8463 700.0000 13.5607
v  -19.8463 700.0000 -13.5607
v  -19.9615 700.0000 12.7841
v  -19.9615 700.0000 -12.7841
v  -12.7841 -700.0000 -19.9615
v  12.7841 -700.0000 -19.9615
v  -13.5607 -700.0000 -19.8463
v  13.5607 -700.0000 -19.8463
v  -14.3223 -700.0000 -19.6555
v  14.3223 -700.0000 -19.6555
v  -15.0615 -700.0000 -19.3910
v  15.0615 -700.0000 -19.3910
v  -15.7712 -700.0000 -19.0554
v  15.7712 -700.0000 -19.0554
v  -16.4446 -700.0000 -18.6518
v  16.4446 -700.0000 -18.6518
v  -17.0751 -700.0000 -18.1841
v  17.0751 -700.0000 -18.1841
v  -17.6569 -700.0000 -17.6569
v  17.6569 -700.0000 -17.6569
v  -18.1841 -700.0000 -17.0751
v  18.1841 -700.0000 -17.0751
v  -18.6518 -700.0000 -16.4446
v  18.6518 -700.0000 -16.4446
v  -19.0554 -700.0000 -15.7712
v  19.0554 -700.0000 -15.7712
v  -19.3910 -700.0000 -15.0615
v  19.3910 -700.0000 -15.0615
v  -19.6555 -700.0000 -14.3223
v  19.6555 -700.0000 -14.3223
v  -19.8463 -700.0000 -13.5607
v  19.8463 -700.0000 -13.5607
v  -19.9615 -700.0000 -12.7841
v  19.9615 -700.0000 -12.7841
v  -19.9615 -700.0000 12.7841
v  19.9615 -700.0000 12.7841
v  -19.8463 -700.0000 13.5607
v  19.8463 -700.0000 13.5607
v  -19.6555 -700.0000 14.3223
v  19.6555 -700.0000 14.3223
v  -19.3910 -700.0000 15.0615
v  19.3910 -700.0000 15.0615
v  -19.0554 -700.0000 15.7712
v  19.0554 -700.0000 15.7712
v  -18.6518 -700.0000 16.4446
v  18.6518 -700.0000 16.4446
v  -18.1841 -700.0000 17.0751
v  18.1841 -700.0000 17.0751
v  -17.6569 -700.0000 17.6569
v  17.6569 -700.0000 17.6569
v  -17.0751 -700.0000 18.1841
v  17.0751 -700.0000 18.1841
v  -16.4446 -700.0000 18.6518
v  16.4446 -700.0000 18.6518
v  -15.7712 -700.0000 19.0554
v  15.7712 -700.0000 19.0554
v  -15.0615 -700.0000 19.3910
v  15.0615 -700.0000 19.3910
v  -14.3223 -700.0000 19.6555
v  14.3223 -700.0000 19.6555
v  -13.5607 -700.0000 19.8463
v  13.5607 -700.0000 19.8463
v  -12.7841 -700.0000 19.9615
v  12.7841 -700.0000 19.9615
# 136 vertices

vn -0.7123 0.7016 0.0175
vn -0.7123 0.7016 -0.0175
vn -0.7123 -0.7016 -0.0175
vn -0.7123 -0.7016 0.0175
vn -0.0175 -0.7016 0.7123
vn 0.0175 -0.7016 0.7123
vn 0.0175 0.7016 0.7123
vn -0.0175 0.7016 0.7123
vn 0.7123 -0.7016 0.0175
vn 0.7123 -0.7016 -0.0175
vn 0.7123 0.7016 -0.0175
vn 0.7123 0.7016 0.0175
vn -0.0175 0.7016 -0.7123
vn 0.0175 0.7016 -0.7123
vn 0.0175 -0.7016 -0.7123
vn -0.0175 -0.7016 -0.7123
vn 0.7144 0.6962 0.0704
vn 0.7144 0.6962 -0.0704
vn 0.7040 0.6963 0.1400
vn 0.7040 0.6962 -0.1400
vn 0.6869 0.6962 0.2084
vn 0.6869 0.6963 -0.2084
vn 0.6632 0.6962 0.2747
vn 0.6632 0.6962 -0.2747
vn 0.6331 0.6962 0.3384
vn 0.6330 0.6962 -0.3384
vn 0.5968 0.6962 0.3988
vn 0.5968 0.6962 -0.3988
vn 0.5549 0.6962 0.4554
vn 0.5549 0.6962 -0.4554
vn 0.5076 0.6962 0.5076
vn 0.5076 0.6962 -0.5076
vn 0.4554 0.6962 0.5549
vn 0.4554 0.6962 -0.5549
vn 0.3988 0.6962 0.5968
vn 0.3988 0.6962 -0.5968
vn 0.3384 0.6962 0.6330
vn 0.3384 0.6962 -0.6331
vn 0.2747 0.6962 0.6632
vn 0.2747 0.6962 -0.6632
vn 0.2084 0.6963 0.6869
vn 0.2084 0.6962 -0.6869
vn 0.1400 0.6962 0.7040
vn 0.1400 0.6963 -0.7040
vn 0.0704 0.6962 0.7144
vn 0.0704 0.6962 -0.7144
vn -0.0704 0.6962 0.7144
vn -0.0704 0.6962 -0.7144
vn -0.1400 0.6963 0.7040
vn -0.1400 0.6962 -0.7040
vn -0.2084 0.6962 0.6869
vn -0.2084 0.6963 -0.6869
vn -0.2747 0.6962 0.6632
vn -0.2747 0.6962 -0.6632
vn -0.3384 0.6962 0.6331
vn -0.3384 0.6962 -0.6330
vn -0.3988 0.6962 0.5968
vn -0.3988 0.6962 -0.5968
vn -0.4554 0.6962 0.5549
vn -0.4554 0.6962 -0.5549
vn -0.5076 0.6962 0.5076
vn -0.5076 0.6962 -0.5076
vn -0.5549 0.6962 0.4554
vn -0.5549 0.6962 -0.4554
vn -0.5968 0.6962 0.3988
vn -0.5968 0.6962 -0.3988
vn -0.6330 0.6962 0.3384
vn -0.6331 0.6962 -0.3384
vn -0.6632 0.6962 0.2747
vn -0.6632 0.6962 -0.2747
vn -0.6869 0.6963 0.2084
vn -0.6869 0.6962 -0.2084
vn -0.7040 0.6962 0.1400
vn -0.7040 0.6963 -0.1400
vn -0.7144 0.6962 0.0704
vn -0.7144 0.6962 -0.0704
vn -0.0704 -0.6962 -0.7144
vn 0.0704 -0.6962 -0.7144
vn -0.1400 -0.6963 -0.7040
vn 0.1400 -0.6962 -0.7040
vn -0.2084 -0.6962 -0.6869
vn 0.2084 -0.6963 -0.6869
vn -0.2747 -0.6962 -0.6632
vn 0.2747 -0.6962 -0.6632
vn -0.3384 -0.6962 -0.6331
vn 0.3384 -0.6962 -0.6330
vn -0.3988 -0.6962 -0.5968
vn 0.3988 -0.6962 -0.5968
vn -0.4554 -0.6962 -0.5549
vn 0.4554 -0.6962 -0.5549
vn -0.5076 -0.6962 -0.5076
vn 0.5076 -0.6962 -0.5076
vn -0.5549 -0.6962 -0.4554
vn 0.5549 -0.6962 -0.4554
vn -0.5968 -0.6962 -0.3988
vn 0.5968 -0.6962 -0.3988
vn -0.6330 -0.6962 -0.3384
vn 0.6331 -0.6962 -0.3384
vn -0.6632 -0.6962 -0.2747
vn 0.6632 -0.6962 -0.2747
vn -0.6869 -0.6963 -0.2084
vn 0.6869 -0.6962 -0.2084
vn -0.7040 -0.6962 -0.1400
vn 0.7040 -0.6963 -0.1400
vn -0.7144 -0.6962 -0.0704
vn 0.7144 -0.6962 -0.0704
vn -0.7144 -0.6962 0.0704
vn 0.7144 -0.6962 0.0704
vn -0.7040 -0.6963 0.1400
vn 0.7040 -0.6962 0.1400
vn -0.6869 -0.6962 0.2084
vn 0.6869 -0.6963 0.2084
vn -0.6632 -0.6962 0.2747
vn 0.6632 -0.6962 0.2747
vn -0.6331 -0.6962 0.3384
vn 0.6330 -0.6962 0.3384
vn -0.5968 -0.6962 0.3988
vn 0.5968 -0.6962 0.3988
vn -0.5549 -0.6962 0.4554
vn 0.5549 -0.6962 0.4554
vn -0.5076 -0.6962 0.5076
vn 0.5076 -0.6962 0.5076
vn -0.4554 -0.6962 0.5549
vn 0.4554 -0.6962 0.5549
vn -0.3988 -0.6962 0.5968
vn 0.3988 -0.6962 0.5968
vn -0.3384 -0.6962 0.6330
vn 0.3384 -0.6962 0.6331
vn -0.2747 -0.6962 0.6632
vn 0.2747 -0.6962 0.6632
vn -0.2084 -0.6963 0.6869
vn 0.2084 -0.6962 0.6869
vn -0.1400 -0.6962 0.7040
vn 0.1400 -0.6963 0.7040
vn -0.0704 -0.6962 0.7144
vn 0.0704 -0.6962 0.7144
# 136 vertex normals

o 
g 
usemtl wire_225198087
s 1
f 1//1 2//2 3//3 
f 1//1 3//3 4//4 
f 5//5 6//6 7//7 
f 5//5 7//7 8//8 
f 9//9 10//10 11//11 
f 9//9 11//11 12//12 
f 13//13 14//14 15//15 
f 13//13 15//15 16//16 
s 2
f 12//12 11//11 17//17 
f 11//11 18//18 17//17 
f 17//17 18//18 19//19 
f 18//18 20//20 19//19 
f 19//19 20//20 21//21 
f 20//20 22//22 21//21 
f 21//21 22//22 23//23 
f 22//22 24//24 23//23 
f 23//23 24//24 25//25 
f 24//24 26//26 25//25 
f 25//25 26//26 27//27 
f 26//26 28//28 27//27 
f 27//27 28//28 29//29 
f 28//28 30//30 29//29 
f 29//29 30//30 31//31 
f 30//30 32//32 31//31 
f 31//31 32//32 33//33 
f 32//32 34//34 33//33 
f 33//33 34//34 35//35 
f 34//34 36//36 35//35 
f 35//35 36//36 37//37 
f 36//36 38//38 37//37 
f 37//37 38//38 39//39 
f 38//38 40//40 39//39 
f 39//39 40//40 41//41 
f 40//40 42//42 41//41 
f 41//41 42//42 43//43 
f 42//42 44//44 43//43 
f 43//43 44//44 45//45 
f 44//44 46//46 45//45 
f 45//45 46//46 7//7 
f 46//46 14//14 7//7 
f 7//7 14//14 8//8 
f 14//14 13//13 8//8 
f 8//8 13//13 47//47 
f 13//13 48//48 47//47 
f 47//47 48//48 49//49 
f 48//48 50//50 49//49 
f 49//49 50//50 51//51 
f 50//50 52//52 51//51 
f 51//51 52//52 53//53 
f 52//52 54//54 53//53 
f 53//53 54//54 55//55 
f 54//54 56//56 55//55 
f 55//55 56//56 57//57 
f 56//56 58//58 57//57 
f 57//57 58//58 59//59 
f 58//58 60//60 59//59 
f 59//59 60//60 61//61 
f 60//60 62//62 61//61 
f 61//61 62//62 63//63 
f 62//62 64//64 63//63 
f 63//63 64//64 65//65 
f 64//64 66//66 65//65 
f 65//65 66//66 67//67 
f 66//66 68//68 67//67 
f 67//67 68//68 69//69 
f 68//68 70//70 69//69 
f 69//69 70//70 71//71 
f 70//70 72//72 71//71 
f 71//71 72//72 73//73 
f 72//72 74//74 73//73 
f 73//73 74//74 75//75 
f 74//74 76//76 75//75 
f 75//75 76//76 1//1 
f 76//76 2//2 1//1 
f 16//16 15//15 77//77 
f 15//15 78//78 77//77 
f 77//77 78//78 79//79 
f 78//78 80//80 79//79 
f 79//79 80//80 81//81 
f 80//80 82//82 81//81 
f 81//81 82//82 83//83 
f 82//82 84//84 83//83 
f 83//83 84//84 85//85 
f 84//84 86//86 85//85 
f 85//85 86//86 87//87 
f 86//86 88//88 87//87 
f 87//87 88//88 89//89 
f 88//88 90//90 89//89 
f 89//89 90//90 91//91 
f 90//90 92//92 91//91 
f 91//91 92//92 93//93 
f 92//92 94//94 93//93 
f 93//93 94//94 95//95 
f 94//94 96//96 95//95 
f 95//95 96//96 97//97 
f 96//96 98//98 97//97 
f 97//97 98//98 99//99 
f 98//98 100//100 99//99 
f 99//99 100//100 101//101 
f 100//100 102//102 101//101 
f 101//101 102//102 103//103 
f 102//102 104//104 103//103 
f 103//103 104//104 105//105 
f 104//104 106//106 105//105 
f 105//105 106//106 3//3 
f 106//106 10//10 3//3 
f 3//3 10//10 4//4 
f 10//10 9//9 4//4 
f 4//4 9//9 107//107 
f 9//9 108//108 107//107 
f 107//107 108//108 109//109 
f 108//108 110//110 109//109 
f 109//109 110//110 111//111 
f 110//110 112//112 111//111 
f 111//111 112//112 113//113 
f 112//112 114//114 113//113 
f 113//113 114//114 115//115 
f 114//114 116//116 115//115 
f 115//115 116//116 117//117 
f 116//116 118//118 117//117 
f 117//117 118//118 119//119 
f 118//118 120//120 119//119 
f 119//119 120//120 121//121 
f 120//120 122//122 121//121 
f 121//121 122//122 123//123 
f 122//122 124//124 123//123 
f 123//123 124//124 125//125 
f 124//124 126//126 125//125 
f 125//125 126//126 127//127 
f 126//126 128//128 127//127 
f 127//127 128//128 129//129 
f 128//128 130//130 129//129 
f 129//129 130//130 131//131 
f 130//130 132//132 131//131 
f 131//131 132//132 133//133 
f 132//132 134//134 133//133 
f 133//133 134//134 135//135 
f 134//134 136//136 135//135 
f 135//135 136//136 5//5 
f 136//136 6//6 5//5 
s 1
f 47//47 135//135 5//5 
f 8//8 47//47 5//5 
f 49//49 133//133 135//135 
f 47//47 49//49 135//135 
f 51//51 131//131 133//133 
f 49//49 51//51 133//133 
f 53//53 129//129 131//131 
f 51//51 53//53 131//131 
f 55//55 127//127 129//129 
f 53//53 55//55 129//129 
f 57//57 125//125 127//127 
f 55//55 57//57 127//127 
f 59//59 123//123 125//125 
f 57//57 59//59 125//125 
f 61//61 121//121 123//123 
f 59//59 61//61 123//123 
f 63//63 119//119 121//121 
f 61//61 63//63 121//121 
f 65//65 117//117 119//119 
f 63//63 65//65 119//119 
f 67//67 115//115 117//117 
f 65//65 67//67 117//117 
f 69//69 113//113 115//115 
f 67//67 69//69 115//115 
f 71//71 111//111 113//113 
f 69//69 71//71 113//113 
f 73//73 109//109 111//111 
f 71//71 73//73 111//111 
f 75//75 107//107 109//109 
f 73//73 75//75 109//109 
f 1//1 4//4 107//107 
f 75//75 1//1 107//107 
f 76//76 105//105 3//3 
f 2//2 76//76 3//3 
f 74//74 103//103 105//105 
f 76//76 74//74 105//105 
f 72//72 101//101 103//103 
f 74//74 72//72 103//103 
f 70//70 99//99 101//101 
f 72//72 70//70 101//101 
f 68//68 97//97 99//99 
f 70//70 68//68 99//99 
f 66//66 95//95 97//97 
f 68//68 66//66 97//97 
f 64//64 93//93 95//95 
f 66//66 64//64 95//95 
f 62//62 91//91 93//93 
f 64//64 62//62 93//93 
f 60//60 89//89 91//91 
f 62//62 60//60 91//91 
f 58//58 87//87 89//89 
f 60//60 58//58 89//89 
f 56//56 85//85 87//87 
f 58//58 56//56 87//87 
f 54//54 83//83 85//85 
f 56//56 54//54 85//85 
f 52//52 81//81 83//83 
f 54//54 52//52 83//83 
f 50//50 79//79 81//81 
f 52//52 50//50 81//81 
f 48//48 77//77 79//79 
f 50//50 48//48 79//79 
f 13//13 16//16 77//77 
f 48//48 13//13 77//77 
f 17//17 108//108 9//9 
f 12//12 17//17 9//9 
f 19//19 110//110 108//108 
f 17//17 19//19 108//108 
f 21//21 112//112 110//110 
f 19//19 21//21 110//110 
f 23//23 114//114 112//112 
f 21//21 23//23 112//112 
f 25//25 116//116 114//114 
f 23//23 25//25 114//114 
f 27//27 118//118 116//116 
f 25//25 27//27 116//116 
f 29//29 120//120 118//118 
f 27//27 29//29 118//118 
f 31//31 122//122 120//120 
f 29//29 31//31 120//120 
f 33//33 124//124 122//122 
f 31//31 33//33 122//122 
f 35//35 126//126 124//124 
f 33//33 35//35 124//124 
f 37//37 128//128 126//126 
f 35//35 37//37 126//126 
f 39//39 130//130 128//128 
f 37//37 39//39 128//128 
f 41//41 132//132 130//130 
f 39//39 41//41 130//130 
f 43//43 134//134 132//132 
f 41//41 43//43 132//132 
f 45//45 136//136 134//134 
f 43//43 45//45 134//134 
f 7//7 6//6 136//136 
f 45//45 7//7 136//136 
f 46//46 78//78 15//15 
f 14//14 46//46 15//15 
f 44//44 80//80 78//78 
f 46//46 44//44 78//78 
f 42//42 82//82 80//80 
f 44//44 42//42 80//80 
f 40//40 84//84 82//82 
f 42//42 40//40 82//82 
f 38//38 86//86 84//84 
f 40//40 38//38 84//84 
f 36//36 88//88 86//86 
f 38//38 36//36 86//86 
f 34//34 90//90 88//88 
f 36//36 34//34 88//88 
f 32//32 92//92 90//90 
f 34//34 32//32 90//90 
f 30//30 94//94 92//92 
f 32//32 30//30 92//92 
f 28//28 96//96 94//94 
f 30//30 28//28 94//94 
f 26//26 98//98 96//96 
f 28//28 26//26 96//96 
f 24//24 100//100 98//98 
f 26//26 24//24 98//98 
f 22//22 102//102 100//100 
f 24//24 22//22 100//100 
f 20//20 104//104 102//102 
f 22//22 20//20 102//102 
f 18//18 106//106 104//104 
f 20//20 18//18 104//104 
f 11//11 10//10 106//106 
f 18//18 11//11 106//106 
# 0 polygons - 268 triangles

