# 3ds Max Wavefront OBJ Exporter v0.99 - (c)2007 guruware
# File Created: 08.04.2024 16:46:43

mtllib pin_with_handle.mtl

#
# object ?????_?_?????????
#

v  3003.4009 0.0000 -2492.6919
v  2994.8269 8.5738 -2495.2324
v  3003.4006 14.1421 -2492.6917
v  2994.8269 22.7160 -2495.2324
v  2990.9194 12.4815 -2497.4314
v  2990.9194 26.6236 -2497.4314
v  2987.3828 16.0178 -2500.1877
v  2987.3828 30.1599 -2500.1877
v  2984.2969 19.1038 -2503.4404
v  2984.2969 33.2459 -2503.4404
v  2981.7302 21.6705 -2507.1169
v  2981.7302 35.8127 -2507.1169
v  2979.7400 23.6607 -2511.1348
v  2979.7400 37.8028 -2511.1348
v  2978.3708 25.0298 -2515.4043
v  2978.3708 39.1719 -2515.4043
v  2978.3708 39.1719 -2425.4043
v  2978.3708 25.0298 -2425.4043
v  2979.7400 37.8028 -2429.6738
v  2979.7400 23.6607 -2429.6738
v  2981.7302 35.8127 -2433.6919
v  2981.7302 21.6705 -2433.6917
v  2984.2969 33.2459 -2437.3682
v  2984.2971 19.1038 -2437.3684
v  2987.3828 30.1599 -2440.6211
v  2987.3828 16.0178 -2440.6211
v  2990.9194 26.6236 -2443.3774
v  2990.9194 12.4815 -2443.3774
v  2994.8269 22.7160 -2445.5759
v  2994.8269 8.5738 -2445.5759
v  3003.4006 14.1421 -2448.1169
v  3003.4006 0.0000 -2448.1169
v  2973.4011 30.0000 -2515.4043
v  2877.8569 40.0000 -2515.4043
v  2977.5430 40.0000 -2515.4043
v  2877.8569 30.0000 -2515.4043
v  3003.4009 14.1421 -2448.4043
v  3003.4006 0.0000 -2448.4043
v  2973.4011 30.0000 -2425.4043
v  3003.4006 0.0000 -2492.4043
v  3007.5427 10.0000 -2448.4043
v  3085.5427 0.0000 -2448.4043
v  3085.5427 10.0000 -2448.4043
v  3091.2368 10.0000 -2449.1538
v  3096.5427 10.0000 -2451.3518
v  3101.0994 10.0000 -2454.8479
v  3104.5955 10.0000 -2459.4043
v  3106.7935 10.0000 -2464.7102
v  3107.5427 10.0000 -2470.4043
v  3106.7935 10.0000 -2476.0986
v  3085.5427 10.0000 -2492.4043
v  3104.5955 10.0000 -2481.4043
v  3101.0994 10.0000 -2485.9607
v  3096.5427 10.0000 -2489.4568
v  3091.2368 10.0000 -2491.6545
v  3007.5427 10.0000 -2492.4043
v  3085.5427 0.0000 -2492.4043
v  3091.2368 0.0000 -2491.6545
v  3096.5427 0.0000 -2489.4568
v  3101.0994 0.0000 -2485.9607
v  3104.5955 0.0000 -2481.4043
v  3106.7935 0.0000 -2476.0986
v  3107.5427 0.0000 -2470.4043
v  3106.7935 0.0000 -2464.7102
v  3104.5955 0.0000 -2459.4043
v  3101.0994 0.0000 -2454.8479
v  3096.5427 0.0000 -2451.3518
v  3091.2368 0.0000 -2449.1538
v  3003.4009 14.1421 -2492.4043
v  2877.8569 40.0000 -2425.4043
v  2877.8569 30.0000 -2425.4043
v  2977.5427 40.0000 -2425.4043
v  2945.5547 10.0000 -2477.9102
v  2945.5547 30.0000 -2477.9099
v  2946.5427 10.0000 -2470.4043
v  2946.5427 30.0000 -2470.4043
v  2945.5547 10.0000 -2462.8984
v  2945.5547 30.0000 -2462.8984
v  2942.6577 10.0000 -2455.9043
v  2942.6575 30.0000 -2455.9043
v  2938.0488 10.0000 -2449.8984
v  2938.0488 30.0000 -2449.8982
v  2932.0427 10.0000 -2445.2896
v  2932.0427 30.0000 -2445.2896
v  2925.0486 10.0000 -2442.3923
v  2925.0486 30.0000 -2442.3923
v  2917.5427 10.0000 -2441.4043
v  2917.5427 30.0000 -2441.4043
v  2910.0371 10.0000 -2442.3926
v  2910.0371 30.0000 -2442.3923
v  2903.0427 10.0000 -2445.2896
v  2903.0427 30.0000 -2445.2896
v  2897.0369 10.0000 -2449.8984
v  2897.0369 30.0000 -2449.8982
v  2892.4282 10.0000 -2455.9043
v  2892.4282 30.0000 -2455.9043
v  2889.5310 10.0000 -2462.8984
v  2889.5310 30.0000 -2462.8984
v  2888.5427 10.0000 -2470.4043
v  2888.5427 30.0000 -2470.4043
v  2889.5310 10.0000 -2477.9102
v  2889.5310 30.0000 -2477.9102
v  2892.4282 10.0000 -2484.9043
v  2892.4282 30.0000 -2484.9043
v  2897.0369 10.0000 -2490.9104
v  2897.0369 30.0000 -2490.9106
v  2903.0427 10.0000 -2495.5193
v  2903.0427 30.0000 -2495.5193
v  2910.0371 10.0000 -2498.4160
v  2910.0371 30.0000 -2498.4160
v  2917.5427 10.0000 -2499.4043
v  2917.5427 30.0000 -2499.4043
v  2925.0486 10.0000 -2498.4160
v  2925.0486 30.0000 -2498.4160
v  2932.0427 10.0000 -2495.5193
v  2932.0427 30.0000 -2495.5193
v  2938.0488 10.0000 -2490.9104
v  2938.0488 30.0000 -2490.9104
v  2942.6577 10.0000 -2484.9043
v  2942.6575 30.0000 -2484.9043
v  2945.5547 240.0000 -2462.8984
v  2945.5547 40.0000 -2462.8984
v  2946.5427 240.0000 -2470.4043
v  2946.5427 40.0000 -2470.4043
v  2945.5547 240.0000 -2477.9102
v  2945.5547 40.0000 -2477.9099
v  2942.6577 240.0000 -2484.9043
v  2942.6575 40.0000 -2484.9043
v  2938.0488 240.0000 -2490.9104
v  2938.0488 40.0000 -2490.9104
v  2932.0427 240.0000 -2495.5193
v  2932.0427 40.0000 -2495.5193
v  2925.0486 240.0000 -2498.4160
v  2925.0486 40.0000 -2498.4160
v  2917.5427 240.0000 -2499.4043
v  2917.5427 40.0000 -2499.4043
v  2910.0371 240.0000 -2498.4160
v  2910.0371 40.0000 -2498.4160
v  2903.0427 240.0000 -2495.5193
v  2903.0427 40.0000 -2495.5193
v  2897.0369 240.0000 -2490.9104
v  2897.0369 40.0000 -2490.9104
v  2892.4282 240.0000 -2484.9043
v  2892.4282 40.0000 -2484.9043
v  2889.5310 240.0000 -2477.9102
v  2889.5310 40.0000 -2477.9102
v  2888.5427 240.0000 -2470.4043
v  2888.5427 40.0000 -2470.4043
v  2889.5310 240.0000 -2462.8984
v  2889.5310 40.0000 -2462.8984
v  2892.4282 240.0000 -2455.9043
v  2892.4282 40.0000 -2455.9043
v  2897.0369 240.0000 -2449.8984
v  2897.0369 40.0000 -2449.8984
v  2903.0427 240.0000 -2445.2896
v  2903.0427 40.0000 -2445.2896
v  2910.0371 240.0000 -2442.3926
v  2910.0371 40.0000 -2442.3923
v  2917.5427 240.0000 -2441.4043
v  2917.5427 40.0000 -2441.4043
v  2925.0486 240.0000 -2442.3926
v  2925.0486 40.0000 -2442.3923
v  2932.0427 240.0000 -2445.2896
v  2932.0427 40.0000 -2445.2896
v  2938.0488 240.0000 -2449.8984
v  2938.0488 40.0000 -2449.8982
v  2942.6577 240.0000 -2455.9043
v  2942.6575 40.0000 -2455.9043
v  2917.5427 260.0000 -2455.3801
v  2921.4314 260.0000 -2455.8923
v  2913.6543 260.0000 -2455.8923
v  2910.0310 260.0000 -2457.3931
v  2925.0552 260.0000 -2457.3931
v  2906.9194 260.0000 -2459.7805
v  2928.1665 260.0000 -2459.7805
v  2904.5317 260.0000 -2462.8926
v  2930.5544 260.0000 -2462.8926
v  2903.0310 260.0000 -2466.5159
v  2932.0552 260.0000 -2466.5159
v  2902.5190 260.0000 -2470.4043
v  2932.5669 260.0000 -2470.4043
v  2903.0310 260.0000 -2474.2930
v  2932.0552 260.0000 -2474.2930
v  2904.5317 260.0000 -2477.9163
v  2930.5544 260.0000 -2477.9163
v  2906.9194 260.0000 -2481.0278
v  2928.1665 260.0000 -2481.0278
v  2910.0310 260.0000 -2483.4158
v  2925.0552 260.0000 -2483.4158
v  2913.6543 260.0000 -2484.9165
v  2921.4314 260.0000 -2484.9165
v  2917.5427 260.0000 -2485.4285
v  2869.2759 30.0000 -2434.7634
v  2869.2759 40.0000 -2434.7634
v  2862.8569 30.0000 -2445.7180
v  2862.8569 40.0000 -2445.7180
v  2858.8865 30.0000 -2457.7783
v  2858.8865 40.0000 -2457.7783
v  2857.5427 30.0000 -2470.4043
v  2857.5427 40.0000 -2470.4043
v  2858.8865 30.0000 -2483.0303
v  2858.8865 40.0000 -2483.0303
v  2862.8569 30.0000 -2495.0908
v  2862.8569 40.0000 -2495.0908
v  2869.2759 30.0000 -2506.0454
v  2869.2759 40.0000 -2506.0454
# 206 vertices

vn 0.3459 -0.7992 -0.4916
vn -0.3154 -0.5862 -0.7463
vn 0.8054 0.2899 -0.5170
vn 0.7137 0.4527 -0.5345
vn -0.1751 -0.6392 -0.7488
vn 0.7691 0.4328 -0.4703
vn -0.0712 -0.6882 -0.7220
vn 0.8117 0.4229 -0.4028
vn 0.0351 -0.7425 -0.6689
vn 0.8467 0.4155 -0.3324
vn 0.1392 -0.7998 -0.5839
vn 0.8740 0.4104 -0.2603
vn 0.2337 -0.8553 -0.4624
vn 0.8939 0.4072 -0.1873
vn 0.1839 -0.7090 -0.6808
vn 0.6478 0.3483 -0.6775
vn 0.6478 0.3484 0.6775
vn 0.1839 -0.7090 0.6808
vn 0.8939 0.4073 0.1873
vn 0.2337 -0.8553 0.4624
vn 0.8740 0.4104 0.2603
vn 0.1392 -0.7998 0.5839
vn 0.8467 0.4155 0.3324
vn 0.0352 -0.7425 0.6689
vn 0.8118 0.4229 0.4028
vn -0.0712 -0.6882 0.7220
vn 0.7691 0.4328 0.4703
vn -0.1752 -0.6392 0.7488
vn 0.7137 0.4527 0.5346
vn -0.3154 -0.5862 0.7463
vn 0.8054 0.2900 0.5170
vn 0.3454 -0.7993 0.4917
vn -0.2275 -0.5491 -0.8042
vn -0.3137 0.6267 -0.7133
vn 0.2971 0.7173 -0.6303
vn -0.3137 -0.6267 -0.7133
vn 0.8199 0.5572 0.1317
vn -0.1566 -0.9125 0.3780
vn -0.2275 -0.5491 0.8042
vn -0.1566 -0.9125 -0.3778
vn 0.2275 0.5491 0.8042
vn 0.0472 -0.6927 0.7197
vn 0.0472 0.6927 0.7197
vn 0.1900 0.6789 0.7092
vn 0.3671 0.6789 0.6359
vn 0.5192 0.6789 0.5192
vn 0.6358 0.6789 0.3671
vn 0.7092 0.6789 0.1900
vn 0.7342 0.6789 0.0000
vn 0.7092 0.6789 -0.1900
vn 0.0472 0.6927 -0.7197
vn 0.6359 0.6789 -0.3671
vn 0.5192 0.6789 -0.5192
vn 0.3671 0.6789 -0.6359
vn 0.1900 0.6789 -0.7092
vn 0.2275 0.5491 -0.8042
vn 0.0472 -0.6927 -0.7197
vn 0.1900 -0.6789 -0.7092
vn 0.3671 -0.6789 -0.6359
vn 0.5192 -0.6789 -0.5192
vn 0.6359 -0.6789 -0.3671
vn 0.7092 -0.6789 -0.1900
vn 0.7342 -0.6789 0.0000
vn 0.7092 -0.6789 0.1900
vn 0.6359 -0.6789 0.3671
vn 0.5192 -0.6789 0.5192
vn 0.3671 -0.6789 0.6358
vn 0.1900 -0.6789 0.7092
vn 0.8199 0.5572 -0.1317
vn -0.3137 0.6267 0.7133
vn -0.3137 -0.6267 0.7133
vn 0.2971 0.7173 0.6303
vn 0.6521 -0.7377 -0.1747
vn 0.7342 -0.6789 -0.0000
vn 0.6751 -0.7377 0.0000
vn 0.6521 -0.7377 0.1747
vn 0.5847 -0.7377 0.3376
vn 0.4774 -0.7377 0.4774
vn 0.3671 -0.6789 0.6359
vn 0.3376 -0.7377 0.5847
vn 0.1747 -0.7377 0.6521
vn -0.0000 -0.6789 0.7343
vn -0.0000 -0.7377 0.6751
vn -0.1901 -0.6788 0.7093
vn -0.1747 -0.7377 0.6522
vn -0.3671 -0.6789 0.6359
vn -0.3376 -0.7377 0.5847
vn -0.5192 -0.6789 0.5192
vn -0.4774 -0.7377 0.4774
vn -0.6359 -0.6789 0.3671
vn -0.5847 -0.7377 0.3376
vn -0.7092 -0.6789 0.1901
vn -0.6521 -0.7377 0.1747
vn -0.7343 -0.6789 -0.0000
vn -0.6751 -0.7377 0.0000
vn -0.7092 -0.6789 -0.1901
vn -0.6521 -0.7377 -0.1747
vn -0.6359 -0.6789 -0.3671
vn -0.5847 -0.7377 -0.3376
vn -0.5192 -0.6789 -0.5192
vn -0.4774 -0.7377 -0.4774
vn -0.3671 -0.6789 -0.6359
vn -0.3375 -0.7377 -0.5847
vn -0.1900 -0.6789 -0.7092
vn -0.1747 -0.7377 -0.6521
vn -0.0000 -0.6789 -0.7343
vn -0.0000 -0.7377 -0.6751
vn 0.1747 -0.7377 -0.6521
vn 0.3375 -0.7377 -0.5846
vn 0.4774 -0.7377 -0.4774
vn 0.5847 -0.7377 -0.3376
vn 0.9234 0.2934 0.2474
vn 0.6521 0.7377 0.1747
vn 0.9560 0.2934 0.0000
vn 0.6751 0.7377 -0.0000
vn 0.9234 0.2933 -0.2474
vn 0.6522 0.7377 -0.1747
vn 0.8279 0.2933 -0.4780
vn 0.5847 0.7377 -0.3376
vn 0.6760 0.2933 -0.6760
vn 0.4774 0.7377 -0.4774
vn 0.4780 0.2934 -0.8279
vn 0.3376 0.7377 -0.5847
vn 0.2474 0.2933 -0.9234
vn 0.1747 0.7377 -0.6521
vn -0.0000 0.2933 -0.9560
vn -0.0000 0.7377 -0.6751
vn -0.2474 0.2933 -0.9234
vn -0.1747 0.7377 -0.6521
vn -0.4780 0.2933 -0.8279
vn -0.3376 0.7377 -0.5847
vn -0.6760 0.2933 -0.6760
vn -0.4774 0.7377 -0.4774
vn -0.8279 0.2933 -0.4780
vn -0.5847 0.7377 -0.3376
vn -0.9234 0.2933 -0.2474
vn -0.6521 0.7377 -0.1747
vn -0.9560 0.2933 -0.0000
vn -0.6751 0.7377 -0.0000
vn -0.9234 0.2933 0.2474
vn -0.6521 0.7377 0.1747
vn -0.8279 0.2933 0.4780
vn -0.5847 0.7377 0.3376
vn -0.6760 0.2933 0.6760
vn -0.4774 0.7377 0.4774
vn -0.4780 0.2934 0.8279
vn -0.3376 0.7377 0.5847
vn -0.2474 0.2933 0.9234
vn -0.1747 0.7377 0.6521
vn -0.0000 0.2933 0.9560
vn 0.0000 0.7377 0.6751
vn 0.2474 0.2933 0.9234
vn 0.1747 0.7377 0.6522
vn 0.4780 0.2933 0.8279
vn 0.3376 0.7377 0.5847
vn 0.6760 0.2933 0.6760
vn 0.4774 0.7377 0.4774
vn 0.8279 0.2933 0.4780
vn 0.5847 0.7377 0.3376
vn 0.0000 0.8709 0.4914
vn 0.1272 0.8710 0.4746
vn -0.1272 0.8710 0.4746
vn -0.2457 0.8709 0.4256
vn 0.2457 0.8709 0.4256
vn -0.3475 0.8709 0.3475
vn 0.3475 0.8709 0.3475
vn -0.4256 0.8709 0.2457
vn 0.4256 0.8709 0.2457
vn -0.4746 0.8709 0.1272
vn 0.4746 0.8709 0.1272
vn -0.4914 0.8709 0.0000
vn 0.4914 0.8709 0.0000
vn -0.4747 0.8709 -0.1272
vn 0.4746 0.8709 -0.1272
vn -0.4256 0.8709 -0.2457
vn 0.4256 0.8709 -0.2457
vn -0.3475 0.8710 -0.3474
vn 0.3475 0.8710 -0.3474
vn -0.2457 0.8709 -0.4256
vn 0.2457 0.8709 -0.4256
vn -0.1272 0.8709 -0.4746
vn 0.1272 0.8709 -0.4746
vn -0.0000 0.8709 -0.4914
vn -0.5868 -0.6840 0.4333
vn -0.5868 0.6840 0.4333
vn -0.6648 -0.6841 0.3001
vn -0.6648 0.6841 0.3001
vn -0.7131 -0.6840 0.1535
vn -0.7131 0.6840 0.1535
vn -0.7294 -0.6840 -0.0000
vn -0.7294 0.6840 0.0000
vn -0.7131 -0.6840 -0.1535
vn -0.7131 0.6840 -0.1535
vn -0.6648 -0.6841 -0.3001
vn -0.6648 0.6841 -0.3001
vn -0.5868 -0.6840 -0.4333
vn -0.5868 0.6840 -0.4333
# 197 vertex normals

o ?????_?_?????????
g ?????_?_?????????
usemtl wire_177088027
s 1
f 1//1 2//2 3//3 
f 3//3 2//2 4//4 
f 4//4 2//2 5//5 
f 4//4 5//5 6//6 
f 6//6 5//5 7//7 
f 6//6 7//7 8//8 
f 8//8 7//7 9//9 
f 8//8 9//9 10//10 
f 10//10 9//9 11//11 
f 10//10 11//11 12//12 
f 12//12 11//11 13//13 
f 12//12 13//13 14//14 
f 14//14 13//13 15//15 
f 14//14 15//15 16//16 
f 17//17 18//18 19//19 
f 19//19 18//18 20//20 
f 19//19 20//20 21//21 
f 21//21 20//20 22//22 
f 21//21 22//22 23//23 
f 23//23 22//22 24//24 
f 23//23 24//24 25//25 
f 25//25 24//24 26//26 
f 25//25 26//26 27//27 
f 27//27 26//26 28//28 
f 27//27 28//28 29//29 
f 29//29 28//28 30//30 
f 29//29 30//30 31//31 
f 31//31 30//30 32//32 
s 2
f 15//15 33//33 16//16 
f 16//16 33//33 34//34 
f 16//16 34//34 35//35 
f 33//33 36//36 34//34 
f 31//31 32//32 37//37 
f 37//37 32//32 38//38 
s 4
f 15//15 13//13 33//33 
f 33//33 13//13 11//11 
f 33//33 11//11 39//39 
f 39//39 11//11 22//22 
f 39//39 22//22 20//20 
f 22//22 11//11 24//24 
f 24//24 11//11 9//9 
f 24//24 9//9 7//7 
f 24//24 7//7 26//26 
f 26//26 7//7 5//5 
f 26//26 5//5 28//28 
f 28//28 5//5 2//2 
f 28//28 2//2 30//30 
f 30//30 2//2 40//40 
f 30//30 40//40 38//38 
f 2//2 1//1 40//40 
f 38//38 32//32 30//30 
f 20//20 18//18 39//39 
s 1
f 37//37 38//38 41//41 
f 41//41 38//38 42//42 
f 41//41 42//42 43//43 
s 2
f 44//44 45//45 43//43 
f 43//43 45//45 46//46 
f 43//43 46//46 47//47 
f 47//47 48//48 43//43 
f 43//43 48//48 41//41 
f 41//41 48//48 49//49 
f 41//41 49//49 50//50 
f 41//41 50//50 51//51 
f 51//51 50//50 52//52 
f 51//51 52//52 53//53 
f 53//53 54//54 51//51 
f 51//51 54//54 55//55 
f 51//51 56//56 41//41 
s 1
f 57//57 51//51 58//58 
f 58//58 51//51 55//55 
f 58//58 55//55 59//59 
f 59//59 55//55 54//54 
f 59//59 54//54 60//60 
f 60//60 54//54 53//53 
f 60//60 53//53 61//61 
f 61//61 53//53 52//52 
f 61//61 52//52 62//62 
f 62//62 52//52 50//50 
f 62//62 50//50 63//63 
f 63//63 50//50 49//49 
f 63//63 49//49 64//64 
f 64//64 49//49 48//48 
f 64//64 48//48 65//65 
f 65//65 48//48 47//47 
f 65//65 47//47 66//66 
f 66//66 47//47 46//46 
f 66//66 46//46 67//67 
f 67//67 46//46 45//45 
f 67//67 45//45 68//68 
f 68//68 45//45 44//44 
f 68//68 44//44 42//42 
f 42//42 44//44 43//43 
f 51//51 57//57 56//56 
f 56//56 57//57 40//40 
f 56//56 40//40 69//69 
s 2
f 1//1 3//3 40//40 
f 40//40 3//3 69//69 
s 8
f 58//58 59//59 57//57 
f 57//57 59//59 60//60 
f 57//57 60//60 61//61 
f 61//61 62//62 57//57 
f 57//57 62//62 38//38 
f 57//57 38//38 40//40 
f 62//62 63//63 38//38 
f 38//38 63//63 64//64 
f 38//38 64//64 42//42 
f 42//42 64//64 65//65 
f 42//42 65//65 66//66 
f 66//66 67//67 42//42 
f 42//42 67//67 68//68 
s 2
f 18//18 17//17 39//39 
f 39//39 17//17 70//70 
f 39//39 70//70 71//71 
f 17//17 72//72 70//70 
s 1
f 73//62 74//73 75//74 
f 75//74 74//73 76//75 
f 75//74 76//75 77//64 
f 77//64 76//75 78//76 
f 77//64 78//76 79//65 
f 79//65 78//76 80//77 
f 79//65 80//77 81//66 
f 81//66 80//77 82//78 
f 81//66 82//78 83//79 
f 83//79 82//78 84//80 
f 83//79 84//80 85//68 
f 85//68 84//80 86//81 
f 85//68 86//81 87//82 
f 87//82 86//81 88//83 
f 87//82 88//83 89//84 
f 89//84 88//83 90//85 
f 89//84 90//85 91//86 
f 91//86 90//85 92//87 
f 91//86 92//87 93//88 
f 93//88 92//87 94//89 
f 93//88 94//89 95//90 
f 95//90 94//89 96//91 
f 95//90 96//91 97//92 
f 97//92 96//91 98//93 
f 97//92 98//93 99//94 
f 99//94 98//93 100//95 
f 99//94 100//95 101//96 
f 101//96 100//95 102//97 
f 101//96 102//97 103//98 
f 103//98 102//97 104//99 
f 103//98 104//99 105//100 
f 105//100 104//99 106//101 
f 105//100 106//101 107//102 
f 107//102 106//101 108//103 
f 107//102 108//103 109//104 
f 109//104 108//103 110//105 
f 109//104 110//105 111//106 
f 111//106 110//105 112//107 
f 111//106 112//107 113//58 
f 113//58 112//107 114//108 
f 113//58 114//108 115//59 
f 115//59 114//108 116//109 
f 115//59 116//109 117//60 
f 117//60 116//109 118//110 
f 117//60 118//110 119//61 
f 119//61 118//110 120//111 
f 119//61 120//111 73//62 
f 73//62 120//111 74//73 
f 121//112 122//113 123//114 
f 123//114 122//113 124//115 
f 123//114 124//115 125//116 
f 125//116 124//115 126//117 
f 125//116 126//117 127//118 
f 127//118 126//117 128//119 
f 127//118 128//119 129//120 
f 129//120 128//119 130//121 
f 129//120 130//121 131//122 
f 131//122 130//121 132//123 
f 131//122 132//123 133//124 
f 133//124 132//123 134//125 
f 133//124 134//125 135//126 
f 135//126 134//125 136//127 
f 135//126 136//127 137//128 
f 137//128 136//127 138//129 
f 137//128 138//129 139//130 
f 139//130 138//129 140//131 
f 139//130 140//131 141//132 
f 141//132 140//131 142//133 
f 141//132 142//133 143//134 
f 143//134 142//133 144//135 
f 143//134 144//135 145//136 
f 145//136 144//135 146//137 
f 145//136 146//137 147//138 
f 147//138 146//137 148//139 
f 147//138 148//139 149//140 
f 149//140 148//139 150//141 
f 149//140 150//141 151//142 
f 151//142 150//141 152//143 
f 151//142 152//143 153//144 
f 153//144 152//143 154//145 
f 153//144 154//145 155//146 
f 155//146 154//145 156//147 
f 155//146 156//147 157//148 
f 157//148 156//147 158//149 
f 157//148 158//149 159//150 
f 159//150 158//149 160//151 
f 159//150 160//151 161//152 
f 161//152 160//151 162//153 
f 161//152 162//153 163//154 
f 163//154 162//153 164//155 
f 163//154 164//155 165//156 
f 165//156 164//155 166//157 
f 165//156 166//157 167//158 
f 167//158 166//157 168//159 
f 167//158 168//159 121//112 
f 121//112 168//159 122//113 
s 2
f 77//64 97//92 75//74 
f 75//74 97//92 99//94 
f 75//74 99//94 73//62 
f 73//62 99//94 101//96 
f 73//62 101//96 119//61 
f 119//61 101//96 103//98 
f 119//61 103//98 117//60 
f 117//60 103//98 105//100 
f 117//60 105//100 115//59 
f 115//59 105//100 107//102 
f 115//59 107//102 113//58 
f 113//58 107//102 109//104 
f 113//58 109//104 111//106 
f 97//92 77//64 95//90 
f 95//90 77//64 79//65 
f 95//90 79//65 93//88 
f 93//88 79//65 81//66 
f 93//88 81//66 91//86 
f 91//86 81//66 83//79 
f 91//86 83//79 89//84 
f 89//84 83//79 85//68 
f 89//84 85//68 87//82 
s 1
f 169//160 170//161 171//162 
f 171//162 170//161 172//163 
f 172//163 170//161 173//164 
f 172//163 173//164 174//165 
f 174//165 173//164 175//166 
f 174//165 175//166 176//167 
f 176//167 175//166 177//168 
f 176//167 177//168 178//169 
f 178//169 177//168 179//170 
f 178//169 179//170 180//171 
f 180//171 179//170 181//172 
f 180//171 181//172 182//173 
f 182//173 181//172 183//174 
f 182//173 183//174 184//175 
f 184//175 183//174 185//176 
f 184//175 185//176 186//177 
f 186//177 185//176 187//178 
f 186//177 187//178 188//179 
f 188//179 187//178 189//180 
f 188//179 189//180 190//181 
f 190//181 189//180 191//182 
f 190//181 191//182 192//183 
s 2
f 171//162 157//148 169//160 
f 169//160 157//148 159//150 
f 169//160 159//150 170//161 
f 170//161 159//150 161//152 
f 170//161 161//152 173//164 
f 173//164 161//152 163//154 
f 173//164 163//154 175//166 
f 175//166 163//154 165//156 
f 175//166 165//156 177//168 
f 177//168 165//156 167//158 
f 177//168 167//158 179//170 
f 179//170 167//158 121//112 
f 179//170 121//112 181//172 
f 181//172 121//112 123//114 
f 181//172 123//114 183//174 
f 183//174 123//114 125//116 
f 183//174 125//116 185//176 
f 185//176 125//116 127//118 
f 185//176 127//118 187//178 
f 187//178 127//118 129//120 
f 187//178 129//120 189//180 
f 189//180 129//120 131//122 
f 189//180 131//122 191//182 
f 191//182 131//122 133//124 
f 191//182 133//124 192//183 
f 192//183 133//124 135//126 
f 192//183 135//126 190//181 
f 190//181 135//126 137//128 
f 190//181 137//128 188//179 
f 188//179 137//128 139//130 
f 188//179 139//130 186//177 
f 186//177 139//130 141//132 
f 186//177 141//132 184//175 
f 184//175 141//132 143//134 
f 184//175 143//134 182//173 
f 182//173 143//134 145//136 
f 182//173 145//136 180//171 
f 180//171 145//136 147//138 
f 180//171 147//138 178//169 
f 178//169 147//138 149//140 
f 178//169 149//140 176//167 
f 176//167 149//140 151//142 
f 176//167 151//142 174//165 
f 174//165 151//142 153//144 
f 174//165 153//144 172//163 
f 172//163 153//144 155//146 
f 172//163 155//146 171//162 
f 171//162 155//146 157//148 
s 1
f 71//71 70//70 193//184 
f 193//184 70//70 194//185 
f 193//184 194//185 195//186 
f 195//186 194//185 196//187 
f 195//186 196//187 197//188 
f 197//188 196//187 198//189 
f 197//188 198//189 199//190 
f 199//190 198//189 200//191 
f 199//190 200//191 201//192 
f 201//192 200//191 202//193 
f 201//192 202//193 203//194 
f 203//194 202//193 204//195 
f 203//194 204//195 205//196 
f 205//196 204//195 206//197 
f 205//196 206//197 36//36 
f 36//36 206//197 34//34 
s 4
f 150//141 148//139 200//191 
f 200//191 148//139 146//137 
f 200//191 146//137 202//193 
f 202//193 146//137 144//135 
f 202//193 144//135 204//195 
f 204//195 144//135 142//133 
f 204//195 142//133 206//197 
f 206//197 142//133 140//131 
f 206//197 140//131 34//34 
f 34//34 140//131 138//129 
f 34//34 138//129 136//127 
f 34//34 136//127 35//35 
f 35//35 136//127 134//125 
f 35//35 134//125 132//123 
f 132//123 130//121 35//35 
f 35//35 130//121 128//119 
f 35//35 128//119 126//117 
f 126//117 124//115 35//35 
f 35//35 124//115 72//72 
f 72//72 124//115 122//113 
f 72//72 122//113 168//159 
f 168//159 166//157 72//72 
f 72//72 166//157 164//155 
f 72//72 164//155 162//153 
f 162//153 160//151 72//72 
f 72//72 160//151 70//70 
f 70//70 160//151 158//149 
f 70//70 158//149 156//147 
f 70//70 156//147 194//185 
f 194//185 156//147 154//145 
f 194//185 154//145 196//187 
f 196//187 154//145 152//143 
f 196//187 152//143 198//189 
f 198//189 152//143 150//141 
f 198//189 150//141 200//191 
s 8
f 102//97 100//95 199//190 
f 199//190 100//95 98//93 
f 199//190 98//93 197//188 
f 197//188 98//93 96//91 
f 197//188 96//91 195//186 
f 195//186 96//91 94//89 
f 195//186 94//89 193//184 
f 193//184 94//89 71//71 
f 71//71 94//89 92//87 
f 71//71 92//87 90//85 
f 90//85 88//83 71//71 
f 71//71 88//83 39//39 
f 39//39 88//83 86//81 
f 39//39 86//81 84//80 
f 84//80 82//78 39//39 
f 39//39 82//78 80//77 
f 39//39 80//77 78//76 
f 78//76 76//75 39//39 
f 39//39 76//75 33//33 
f 33//33 76//75 74//73 
f 33//33 74//73 120//111 
f 120//111 118//110 33//33 
f 33//33 118//110 116//109 
f 33//33 116//109 114//108 
f 114//108 112//107 33//33 
f 33//33 112//107 36//36 
f 36//36 112//107 110//105 
f 36//36 110//105 108//103 
f 108//103 106//101 36//36 
f 36//36 106//101 205//196 
f 205//196 106//101 203//194 
f 203//194 106//101 104//99 
f 203//194 104//99 201//192 
f 201//192 104//99 102//97 
f 201//192 102//97 199//190 
f 3//3 4//4 69//69 
f 69//69 4//4 29//29 
f 69//69 29//29 37//37 
f 37//37 29//29 31//31 
f 29//29 4//4 27//27 
f 27//27 4//4 6//6 
f 27//27 6//6 25//25 
f 25//25 6//6 8//8 
f 25//25 8//8 23//23 
f 23//23 8//8 10//10 
f 23//23 10//10 21//21 
f 21//21 10//10 12//12 
f 21//21 12//12 14//14 
f 16//16 35//35 14//14 
f 14//14 35//35 72//72 
f 14//14 72//72 19//19 
f 19//19 72//72 17//17 
f 19//19 21//21 14//14 
f 37//37 41//41 69//69 
f 69//69 41//41 56//56 
# 0 polygons - 408 triangles

